<svg width="315" height="62" viewBox="0 0 315 62" fill="none" xmlns="http://www.w3.org/2000/svg">
<path d="M314.5 56.0968L304.375 61.6491L304.629 50.1049L314.5 56.0968ZM11.3333 10.0968C11.3333 13.0423 8.94553 15.4301 6 15.4301C3.05447 15.4301 0.666656 13.0423 0.666656 10.0968C0.666656 7.15128 3.05447 4.76347 6 4.76347C8.94553 4.76347 11.3333 7.15128 11.3333 10.0968ZM308.355 56.9444C307.012 56.9052 305.681 56.8624 304.362 56.8161L304.432 54.8173C305.747 54.8635 307.074 54.9062 308.413 54.9453L308.355 56.9444ZM300.441 56.6668C299.136 56.6132 297.843 56.5561 296.562 56.4956L296.656 54.4978C297.933 54.5581 299.222 54.615 300.523 54.6685L300.441 56.6668ZM292.473 56.2887C291.123 56.2159 289.787 56.1392 288.463 56.0587L288.585 54.0624C289.903 54.1426 291.235 54.219 292.58 54.2916L292.473 56.2887ZM284.532 55.8059C283.234 55.7179 281.949 55.6261 280.676 55.5308L280.825 53.5363C282.093 53.6314 283.374 53.7228 284.668 53.8105L284.532 55.8059ZM276.59 55.2086C275.242 55.0971 273.91 54.9814 272.591 54.8617L272.772 52.8699C274.085 52.9891 275.413 53.1043 276.755 53.2154L276.59 55.2086ZM268.679 54.4906C267.363 54.3604 266.061 54.226 264.775 54.0878L264.988 52.0992C266.27 52.2369 267.565 52.3706 268.876 52.5003L268.679 54.4906ZM260.725 53.6342C259.392 53.4786 258.074 53.3187 256.771 53.1546L257.021 51.1703C258.318 51.3336 259.629 51.4928 260.957 51.6477L260.725 53.6342ZM252.91 52.6498C251.559 52.4665 250.225 52.2787 248.907 52.0865L249.196 50.1075C250.507 50.2987 251.834 50.4856 253.179 50.6679L252.91 52.6498ZM244.934 51.4856C243.627 51.2808 242.337 51.0716 241.063 50.8581L241.394 48.8856C242.661 49.0979 243.944 49.306 245.244 49.5097L244.934 51.4856ZM237.126 50.1755C235.786 49.9354 234.465 49.6904 233.162 49.4409L233.539 47.4766C234.834 47.7246 236.147 47.9681 237.479 48.2069L237.126 50.1755ZM229.308 48.6789C227.984 48.4088 226.679 48.134 225.393 47.8546L225.818 45.9002C227.095 46.1778 228.392 46.4509 229.708 46.7193L229.308 48.6789ZM221.47 46.9755C220.182 46.6778 218.913 46.3756 217.663 46.0691L218.139 44.1267C219.381 44.431 220.641 44.7311 221.92 45.0268L221.47 46.9755ZM213.742 45.0785C212.439 44.7393 211.156 44.3955 209.893 44.0475L210.425 42.1194C211.678 42.4649 212.952 42.8062 214.246 43.143L213.742 45.0785ZM206.097 42.9712C204.785 42.5889 203.496 42.2022 202.227 41.8113L202.816 39.9C204.075 40.2879 205.355 40.6717 206.656 41.0511L206.097 42.9712ZM198.483 40.627C197.183 40.2049 195.906 39.7787 194.65 39.3489L195.297 37.4566C196.543 37.883 197.811 38.3059 199.101 38.7247L198.483 40.627ZM190.911 38.0378C189.637 37.58 188.385 37.1188 187.154 36.6547L187.859 34.7832C189.081 35.2437 190.323 35.7014 191.587 36.1556L190.911 38.0378ZM183.44 35.2229C182.186 34.7287 180.953 34.2321 179.74 33.7336L180.5 31.8837C181.705 32.3786 182.928 32.8717 184.173 33.3622L183.44 35.2229ZM176.065 32.1938C174.827 31.6652 173.609 31.1354 172.409 30.6051L173.217 28.7758C174.41 29.3029 175.62 29.8293 176.85 30.3544L176.065 32.1938ZM168.78 28.9773C167.555 28.4197 166.348 27.8625 165.156 27.3067L166.002 25.4942C167.189 26.0477 168.39 26.6023 169.609 27.157L168.78 28.9773ZM161.572 25.6189C160.357 25.0416 159.157 24.4669 157.968 23.8957L158.834 22.0931C160.021 22.6634 161.219 23.2368 162.431 23.8123L161.572 25.6189ZM154.408 22.18C153.201 21.5977 152.004 21.0205 150.815 20.4492L151.681 18.6464C152.872 19.2185 154.07 19.7965 155.277 20.3787L154.408 22.18ZM147.241 18.7429C146.041 18.1743 144.845 17.6132 143.652 17.0609L144.492 15.2458C145.692 15.8012 146.893 16.3649 148.097 16.9355L147.241 18.7429ZM140.048 15.42C138.843 14.8812 137.637 14.3524 136.426 13.8349L137.212 11.9958C138.434 12.5181 139.65 13.0514 140.865 13.5943L140.048 15.42ZM132.778 12.3181C131.561 11.8268 130.337 11.3478 129.101 10.8824L129.807 9.01089C131.057 9.48214 132.296 9.96679 133.527 10.4636L132.778 12.3181ZM125.388 9.5373C124.158 9.11011 122.915 8.69695 121.656 8.29892L122.258 6.39195C123.536 6.79584 124.797 7.21492 126.044 7.648L125.388 9.5373ZM117.854 7.15872C116.613 6.80682 115.355 6.46982 114.077 6.14871L114.565 4.209C115.862 4.53511 117.14 4.87733 118.4 5.23462L117.854 7.15872ZM110.221 5.24282C108.962 4.96734 107.682 4.70719 106.379 4.46326L106.747 2.49743C108.07 2.74509 109.37 3.00924 110.649 3.28901L110.221 5.24282ZM102.482 3.79361C101.208 3.59406 99.9118 3.40971 98.5915 3.24131L98.8446 1.25738C100.184 1.42818 101.499 1.6152 102.791 1.8177L102.482 3.79361ZM94.6596 2.79488C93.379 2.66707 92.0757 2.55384 90.7482 2.4558L90.8955 0.461235C92.2399 0.560523 93.5603 0.675231 94.8582 0.804763L94.6596 2.79488ZM86.7749 2.21194C85.4971 2.1491 84.1972 2.09987 82.8739 2.06474L82.927 0.0654408C84.2651 0.100966 85.5801 0.150762 86.8731 0.214352L86.7749 2.21194ZM78.8367 2.00215C77.571 1.99617 76.2845 2.00263 74.9761 2.02191L74.9466 0.0221239C76.2678 0.00266135 77.5673 -0.00386608 78.8461 0.00216854L78.8367 2.00215ZM70.9842 2.11857C69.6916 2.16184 68.3781 2.21716 67.043 2.28487L66.9417 0.287438C68.288 0.21916 69.613 0.163352 70.9173 0.11969L70.9842 2.11857ZM63.1277 2.51505C61.8021 2.60344 60.4557 2.70361 59.0877 2.81585L58.9242 0.822546C60.302 0.709493 61.6586 0.608568 62.9946 0.51948L63.1277 2.51505ZM55.2276 3.15932C53.9361 3.28299 52.6259 3.41704 51.2966 3.5617L51.0802 1.57344C52.418 1.42786 53.7367 1.29293 55.0369 1.16843L55.2276 3.15932ZM47.2502 4.02776C45.9928 4.18041 44.7187 4.34221 43.4274 4.51335L43.1646 2.53068C44.463 2.3586 45.7444 2.19588 47.0092 2.04234L47.2502 4.02776ZM39.5153 5.05298C38.1939 5.24225 36.8551 5.44096 35.4984 5.6493L35.1949 3.67247C36.5581 3.46313 37.9036 3.26343 39.2317 3.07318L39.5153 5.05298ZM31.6485 6.25858C30.3755 6.46591 29.0871 6.68145 27.7831 6.90532L27.4447 4.93416C28.7542 4.70934 30.0482 4.49286 31.327 4.28459L31.6485 6.25858ZM23.8236 7.6021C22.5215 7.83675 21.204 8.07945 19.8711 8.33033L19.5012 6.36484C20.8391 6.11302 22.1616 5.86938 23.469 5.6338L23.8236 7.6021ZM16.0729 9.0592C14.793 9.30944 13.4991 9.56701 12.1911 9.832L11.794 7.87181C13.1064 7.60594 14.4047 7.34749 15.6892 7.09636L16.0729 9.0592ZM8.22394 10.6494C7.5556 10.7893 6.8837 10.9312 6.2081 11.0749L5.7919 9.1187C6.46954 8.97452 7.14355 8.83223 7.81396 8.69183L8.22394 10.6494Z" fill="#FC4E0A"/>
</svg>
