<svg width="315" height="63" viewBox="0 0 315 63" fill="none" xmlns="http://www.w3.org/2000/svg">
<path d="M314.5 6L304.375 0.44772L304.629 11.9919L314.5 6ZM11.3333 52C11.3333 49.0545 8.94553 46.6667 6 46.6667C3.05447 46.6667 0.666656 49.0545 0.666656 52C0.666656 54.9455 3.05447 57.3333 6 57.3333C8.94553 57.3333 11.3333 54.9455 11.3333 52ZM308.355 5.15239C307.012 5.19161 305.681 5.23439 304.362 5.28069L304.432 7.27946C305.747 7.2333 307.074 7.19064 308.413 7.15154L308.355 5.15239ZM300.441 5.43C299.136 5.48362 297.843 5.54072 296.562 5.60124L296.656 7.59901C297.933 7.53869 299.222 7.48177 300.523 7.42832L300.441 5.43ZM292.473 5.80809C291.123 5.88093 289.787 5.95764 288.463 6.03814L288.585 8.03444C289.903 7.95423 291.235 7.87778 292.58 7.80518L292.473 5.80809ZM284.532 6.29088C283.234 6.37892 281.949 6.47067 280.676 6.56605L280.825 8.56046C282.093 8.46544 283.374 8.37402 284.668 8.28629L284.532 6.29088ZM276.59 6.88818C275.242 6.99972 273.91 7.1154 272.591 7.23511L272.772 9.22692C274.085 9.10769 275.413 8.99247 276.755 8.88136L276.59 6.88818ZM268.679 7.60622C267.363 7.73645 266.061 7.87076 264.775 8.00904L264.988 9.99759C266.27 9.85991 267.565 9.72618 268.876 9.5965L268.679 7.60622ZM260.725 8.4626C259.392 8.61817 258.074 8.77808 256.771 8.9422L257.021 10.9265C258.318 10.7632 259.629 10.604 260.957 10.4491L260.725 8.4626ZM252.91 9.44705C251.559 9.63025 250.225 9.81805 248.907 10.0103L249.196 11.9893C250.507 11.7981 251.834 11.6112 253.179 11.4289L252.91 9.44705ZM244.934 10.6112C243.627 10.816 242.337 11.0252 241.063 11.2387L241.394 13.2112C242.661 12.9989 243.944 12.7908 245.244 12.5871L244.934 10.6112ZM237.126 11.9213C235.786 12.1614 234.465 12.4064 233.162 12.6559L233.539 14.6202C234.834 14.3722 236.147 14.1287 237.479 13.8899L237.126 11.9213ZM229.308 13.4179C227.984 13.688 226.679 13.9628 225.393 14.2422L225.818 16.1966C227.095 15.919 228.392 15.6459 229.708 15.3775L229.308 13.4179ZM221.47 15.1213C220.182 15.419 218.913 15.7212 217.663 16.0277L218.139 17.9701C219.381 17.6658 220.641 17.3657 221.92 17.07L221.47 15.1213ZM213.742 17.0183C212.439 17.3575 211.156 17.7013 209.893 18.0493L210.425 19.9774C211.678 19.6319 212.952 19.2906 214.246 18.9538L213.742 17.0183ZM206.097 19.1256C204.785 19.5079 203.496 19.8946 202.227 20.2855L202.816 22.1968C204.075 21.8089 205.355 21.4251 206.656 21.0457L206.097 19.1256ZM198.483 21.4698C197.183 21.8919 195.906 22.3181 194.65 22.7479L195.297 24.6402C196.543 24.2138 197.811 23.7909 199.101 23.3721L198.483 21.4698ZM190.911 24.059C189.637 24.5168 188.385 24.9781 187.154 25.4421L187.859 27.3136C189.081 26.8531 190.323 26.3954 191.587 25.9412L190.911 24.059ZM183.44 26.8739C182.186 27.3681 180.953 27.8647 179.74 28.3632L180.5 30.2131C181.705 29.7182 182.928 29.2251 184.173 28.7346L183.44 26.8739ZM176.065 29.903C174.827 30.4316 173.609 30.9614 172.409 31.4917L173.217 33.321C174.41 32.794 175.62 32.2675 176.85 31.7424L176.065 29.903ZM168.78 33.1195C167.555 33.6771 166.348 34.2343 165.156 34.7901L166.002 36.6026C167.189 36.0491 168.39 35.4945 169.609 34.9398L168.78 33.1195ZM161.572 36.4779C160.357 37.0552 159.157 37.6299 157.968 38.2011L158.834 40.0037C160.021 39.4334 161.219 38.86 162.431 38.2845L161.572 36.4779ZM154.408 39.9168C153.201 40.4991 152.004 41.0763 150.815 41.6476L151.681 43.4504C152.872 42.8783 154.07 42.3003 155.277 41.7181L154.408 39.9168ZM147.241 43.3539C146.041 43.9225 144.845 44.4836 143.652 45.0359L144.492 46.851C145.692 46.2956 146.893 45.7319 148.097 45.1613L147.241 43.3539ZM140.048 46.6768C138.843 47.2156 137.637 47.7444 136.426 48.2619L137.212 50.101C138.434 49.5787 139.65 49.0454 140.865 48.5025L140.048 46.6768ZM132.778 49.7787C131.561 50.27 130.337 50.749 129.101 51.2144L129.807 53.0859C131.057 52.6147 132.296 52.13 133.527 51.6332L132.778 49.7787ZM125.388 52.5595C124.158 52.9867 122.915 53.3999 121.656 53.7979L122.258 55.7049C123.536 55.301 124.797 54.8819 126.044 54.4488L125.388 52.5595ZM117.854 54.9381C116.613 55.29 115.355 55.627 114.077 55.9481L114.565 57.8878C115.862 57.5617 117.14 57.2195 118.4 56.8622L117.854 54.9381ZM110.221 56.854C108.962 57.1295 107.682 57.3896 106.379 57.6335L106.747 59.5994C108.07 59.3517 109.37 59.0876 110.649 58.8078L110.221 56.854ZM102.482 58.3032C101.208 58.5027 99.9118 58.6871 98.5915 58.8555L98.8446 60.8394C100.184 60.6686 101.499 60.4816 102.791 60.2791L102.482 58.3032ZM94.6596 59.3019C93.379 59.4297 92.0757 59.543 90.7482 59.641L90.8955 61.6356C92.2399 61.5363 93.5603 61.4216 94.8582 61.292L94.6596 59.3019ZM86.7749 59.8849C85.4971 59.9477 84.1972 59.9969 82.8739 60.0321L82.927 62.0314C84.2651 61.9958 85.5801 61.946 86.8731 61.8824L86.7749 59.8849ZM78.8367 60.0947C77.571 60.1006 76.2845 60.0942 74.9761 60.0749L74.9466 62.0747C76.2678 62.0941 77.5673 62.1007 78.8461 62.0946L78.8367 60.0947ZM70.9842 59.9782C69.6916 59.935 68.3781 59.8796 67.043 59.8119L66.9417 61.8094C68.288 61.8776 69.613 61.9334 70.9173 61.9771L70.9842 59.9782ZM63.1277 59.5818C61.8021 59.4934 60.4557 59.3932 59.0877 59.281L58.9242 61.2743C60.302 61.3873 61.6586 61.4882 62.9946 61.5773L63.1277 59.5818ZM55.2276 58.9375C53.9361 58.8138 52.6259 58.6798 51.2966 58.5351L51.0802 60.5234C52.418 60.6689 53.7367 60.8039 55.0369 60.9284L55.2276 58.9375ZM47.2502 58.069C45.9928 57.9164 44.7187 57.7546 43.4274 57.5835L43.1646 59.5661C44.463 59.7382 45.7444 59.9009 47.0092 60.0545L47.2502 58.069ZM39.5153 57.0438C38.1939 56.8546 36.8551 56.6558 35.4984 56.4475L35.1949 58.4243C36.5581 58.6337 37.9036 58.8334 39.2317 59.0236L39.5153 57.0438ZM31.6485 55.8382C30.3755 55.6309 29.0871 55.4154 27.7831 55.1915L27.4447 57.1626C28.7542 57.3875 30.0482 57.6039 31.327 57.8122L31.6485 55.8382ZM23.8236 54.4947C22.5215 54.2601 21.204 54.0174 19.8711 53.7665L19.5012 55.732C20.8391 55.9838 22.1616 56.2274 23.469 56.463L23.8236 54.4947ZM16.0729 53.0376C14.793 52.7874 13.4991 52.5298 12.1911 52.2648L11.794 54.225C13.1064 54.4909 14.4047 54.7493 15.6892 55.0004L16.0729 53.0376ZM8.22394 51.4474C7.5556 51.3075 6.8837 51.1656 6.2081 51.0219L5.7919 52.9781C6.46954 53.1223 7.14355 53.2646 7.81396 53.405L8.22394 51.4474Z" fill="#FC4E0A"/>
</svg>
