<svg width="377" height="179" viewBox="0 0 377 179" fill="none" xmlns="http://www.w3.org/2000/svg">
<path d="M371.001 179L376.511 168.853L364.968 169.154L371.001 179ZM194.001 18L194.015 17.0001L193.975 16.9995L193.934 17.0022L194.001 18ZM11.3334 6C11.3334 3.05447 8.94556 0.666672 6.00003 0.666672C3.0545 0.666672 0.666687 3.05447 0.666687 6C0.666687 8.94553 3.0545 11.3333 6.00003 11.3333C8.94556 11.3333 11.3334 8.94553 11.3334 6ZM371.833 172.9C371.793 171.553 371.75 170.213 371.706 168.88L369.707 168.947C369.751 170.277 369.794 171.615 369.834 172.96L371.833 172.9ZM371.56 164.83C371.509 163.486 371.455 162.15 371.397 160.821L369.399 160.908C369.457 162.233 369.511 163.566 369.562 164.907L371.56 164.83ZM371.209 156.762C371.142 155.418 371.071 154.081 370.996 152.752L368.999 152.866C369.074 154.189 369.145 155.521 369.211 156.862L371.209 156.762ZM370.749 148.697C370.662 147.351 370.569 146.013 370.471 144.685L368.477 144.832C368.574 146.155 368.667 147.486 368.754 148.827L370.749 148.697ZM370.151 140.637C370.037 139.291 369.917 137.954 369.79 136.627L367.799 136.818C367.925 138.137 368.045 139.466 368.158 140.805L370.151 140.637ZM369.376 132.587C369.23 131.243 369.075 129.909 368.912 128.585L366.927 128.829C367.089 130.144 367.243 131.469 367.388 132.804L369.376 132.587ZM368.383 124.555C368.196 123.216 368 121.887 367.793 120.569L365.817 120.88C366.022 122.186 366.217 123.503 366.402 124.831L368.383 124.555ZM367.123 116.554C366.887 115.223 366.64 113.903 366.38 112.595L364.418 112.985C364.675 114.279 364.92 115.585 365.153 116.903L367.123 116.554ZM365.54 108.605C365.245 107.281 364.936 105.97 364.612 104.671L362.672 105.154C362.991 106.437 363.296 107.732 363.588 109.04L365.54 108.605ZM363.575 100.735C363.21 99.4247 362.828 98.1277 362.429 96.8441L360.519 97.4377C360.912 98.7017 361.288 99.9798 361.648 101.272L363.575 100.735ZM361.163 92.9846C360.717 91.6961 360.251 90.422 359.766 89.1624L357.9 89.8815C358.377 91.119 358.834 92.3715 359.273 93.6389L361.163 92.9846ZM358.239 85.4042C357.702 84.1493 357.143 82.9097 356.561 81.6856L354.755 82.544C355.325 83.744 355.873 84.9597 356.401 86.1912L358.239 85.4042ZM354.741 78.049C354.107 76.8448 353.449 75.6565 352.765 74.4844L351.037 75.492C351.706 76.6387 352.351 77.8018 352.972 78.981L354.741 78.049ZM350.635 71.0125C349.899 69.8705 349.136 68.745 348.347 67.636L346.718 68.7962C347.489 69.8798 348.235 70.9799 348.954 72.0963L350.635 71.0125ZM345.908 64.3756C345.071 63.3094 344.206 62.2598 343.312 61.2268L341.8 62.5352C342.672 63.5441 343.517 64.5693 344.335 65.6108L345.908 64.3756ZM340.575 58.2088C339.645 57.2311 338.687 56.2697 337.7 55.3246L336.317 56.769C337.281 57.6926 338.217 58.632 339.125 59.5871L340.575 58.2088ZM334.683 52.5653C333.673 51.6835 332.636 50.8171 331.57 49.9663L330.322 51.5294C331.365 52.362 332.38 53.2095 333.367 54.0717L334.683 52.5653ZM328.307 47.4767C327.231 46.6915 326.128 45.9207 324.998 45.1644L323.886 46.8266C324.994 47.568 326.074 48.3233 327.128 49.0923L328.307 47.4767ZM321.549 42.9548C320.415 42.2588 319.255 41.5761 318.068 40.9069L317.086 42.6489C318.251 43.3063 319.39 43.9765 320.504 44.6595L321.549 42.9548ZM314.47 38.9606C313.29 38.3492 312.087 37.75 310.858 37.163L309.996 38.9677C311.205 39.5454 312.389 40.1349 313.549 40.7362L314.47 38.9606ZM307.135 35.4557C305.923 34.9227 304.69 34.4009 303.432 33.8902L302.68 35.7432C303.919 36.2468 305.136 36.7612 306.329 37.2863L307.135 35.4557ZM299.598 32.3942C298.366 31.933 297.114 31.4819 295.84 31.0407L295.185 32.9306C296.444 33.3664 297.681 33.812 298.896 34.2672L299.598 32.3942ZM291.953 29.7473C290.693 29.3446 289.413 28.951 288.113 28.5667L287.546 30.4846C288.832 30.8649 290.098 31.2542 291.344 31.6524L291.953 29.7473ZM284.211 27.4581C282.916 27.1046 281.602 26.7597 280.268 26.4235L279.779 28.3629C281.101 28.6959 282.402 29.0374 283.684 29.3875L284.211 27.4581ZM276.375 25.48C275.06 25.1736 273.726 24.8751 272.373 24.5847L271.953 26.5402C273.295 26.8282 274.617 27.1241 275.922 27.4279L276.375 25.48ZM268.448 23.7751C267.143 23.5166 265.821 23.2653 264.483 23.0212L264.124 24.9887C265.453 25.2311 266.764 25.4805 268.059 25.737L268.448 23.7751ZM260.421 22.3111C259.131 22.0951 257.826 21.8856 256.506 21.6824L256.202 23.6591C257.514 23.861 258.81 24.0692 260.091 24.2836L260.421 22.3111ZM252.5 21.092C251.158 20.9028 249.8 20.72 248.428 20.5434L248.172 22.5271C249.537 22.7026 250.887 22.8844 252.221 23.0724L252.5 21.092ZM244.49 20.0596C243.163 19.904 241.823 19.7541 240.468 19.61L240.256 21.5987C241.604 21.7421 242.937 21.8912 244.257 22.046L244.49 20.0596ZM236.363 19.1948C235.063 19.07 233.749 18.9503 232.423 18.8357L232.251 20.8282C233.571 20.9423 234.878 21.0615 236.172 21.1857L236.363 19.1948ZM228.407 18.5071C227.055 18.4027 225.69 18.3034 224.313 18.2092L224.176 20.2046C225.548 20.2983 226.907 20.3972 228.252 20.5012L228.407 18.5071ZM220.317 17.9527C218.996 17.8733 217.664 17.7985 216.321 17.7282L216.216 19.7255C217.555 19.7955 218.882 19.87 220.197 19.9491L220.317 17.9527ZM212.254 17.5313C210.904 17.4709 209.542 17.4151 208.168 17.3638L208.094 19.3624C209.462 19.4135 210.82 19.4692 212.165 19.5293L212.254 17.5313ZM204.205 17.2291C202.873 17.1883 201.531 17.1516 200.178 17.119L200.129 19.1184C201.478 19.1509 202.816 19.1875 204.144 19.2281L204.205 17.2291ZM196.086 17.0336C195.398 17.0214 194.708 17.0102 194.015 17.0001L193.986 18.9999C194.677 19.01 195.365 19.0211 196.05 19.0332L196.086 17.0336ZM193.934 17.0022C193.318 17.0433 192.667 17.0948 191.984 17.1559L192.162 19.1479C192.833 19.088 193.468 19.0377 194.067 18.9978L193.934 17.0022ZM187.936 17.581C186.67 17.7299 185.327 17.9001 183.911 18.089L184.176 20.0715C185.583 19.8836 186.916 19.7148 188.17 19.5673L187.936 17.581ZM179.881 18.6479C178.581 18.8341 177.232 19.032 175.839 19.2401L176.135 21.2182C177.525 21.0106 178.869 20.8132 180.165 20.6277L179.881 18.6479ZM171.893 19.8377C170.592 20.0369 169.259 20.2431 167.895 20.4551L168.203 22.4313C169.565 22.2195 170.897 22.0136 172.196 21.8146L171.893 19.8377ZM163.873 21.083C162.578 21.2857 161.26 21.4925 159.92 21.7024L160.23 23.6783C161.57 23.4683 162.887 23.2616 164.182 23.0589L163.873 21.083ZM155.906 22.3307C154.599 22.5347 153.275 22.7409 151.935 22.9487L152.241 24.9251C153.583 24.7172 154.907 24.5108 156.214 24.3068L155.906 22.3307ZM147.939 23.5647C146.622 23.7665 145.292 23.9692 143.949 24.1721L144.248 26.1496C145.592 25.9465 146.924 25.7436 148.242 25.5416L147.939 23.5647ZM139.962 24.7692C138.639 24.9656 137.305 25.1617 135.962 25.3569L136.25 27.3361C137.595 27.1406 138.931 26.9442 140.255 26.7476L139.962 24.7692ZM131.976 25.9295C130.649 26.1178 129.315 26.3048 127.973 26.49L128.247 28.4712C129.591 28.2857 130.928 28.0983 132.257 27.9097L131.976 25.9295ZM123.983 27.0325C122.653 27.2104 121.318 27.3861 119.979 27.5591L120.235 29.5426C121.577 29.3692 122.916 29.1931 124.248 29.0148L123.983 27.0325ZM115.982 28.0654C114.649 28.2307 113.314 28.3929 111.977 28.5516L112.212 30.5377C113.553 30.3786 114.892 30.2159 116.228 30.0501L115.982 28.0654ZM107.972 29.0149C106.637 29.1653 105.301 29.3117 103.965 29.4536L104.177 31.4424C105.517 31.3 106.857 31.1532 108.196 31.0023L107.972 29.0149ZM99.9532 29.8662C98.6158 29.9991 97.2793 30.127 95.9449 30.2495L96.1277 32.2411C97.4673 32.1181 98.8087 31.9897 100.151 31.8564L99.9532 29.8662ZM91.9255 30.6025C90.5854 30.7146 89.2484 30.8209 87.9155 30.9207L88.0649 32.9151C89.4038 32.8148 90.7466 32.7081 92.0923 32.5955L91.9255 30.6025ZM83.8893 31.2033C82.5469 31.291 81.2098 31.3716 79.8791 31.4447L79.9888 33.4417C81.3266 33.3682 82.6706 33.2871 84.0197 33.199L83.8893 31.2033ZM75.8459 31.6435C74.502 31.702 73.1661 31.7521 71.8392 31.7933L71.9012 33.7923C73.2368 33.7508 74.5811 33.7004 75.9328 33.6416L75.8459 31.6435ZM67.7983 31.8913C66.4552 31.9144 65.123 31.9276 63.8027 31.9304L63.8069 33.9304C65.1376 33.9276 66.48 33.9143 67.8327 33.891L67.7983 31.8913ZM59.7535 31.9047C58.4079 31.8845 57.0768 31.8523 55.7615 31.8075L55.6935 33.8064C57.022 33.8516 58.3658 33.8841 59.7234 33.9045L59.7535 31.9047ZM51.726 31.6273C50.3738 31.5519 49.041 31.4618 47.7292 31.3562L47.5688 33.3498C48.8978 33.4567 50.247 33.5479 51.6147 33.6242L51.726 31.6273ZM43.7456 30.9805C42.3873 30.8325 41.0553 30.666 39.7516 30.4801L39.4693 32.4601C40.7961 32.6493 42.1501 32.8185 43.529 32.9688L43.7456 30.9805ZM35.8336 29.8463C34.4892 29.6013 33.1807 29.3327 31.9106 29.0395L31.4607 30.9883C32.7633 31.289 34.1023 31.5638 35.4752 31.8139L35.8336 29.8463ZM28.0432 28.0343C26.7405 27.6545 25.488 27.244 24.2887 26.8015L23.5964 28.6778C24.8429 29.1377 26.1398 29.5626 27.4833 29.9543L28.0432 28.0343ZM20.6738 25.2926C19.4426 24.7117 18.2858 24.0885 17.2071 23.4216L16.1553 25.1227C17.3038 25.8328 18.5275 26.4914 19.8203 27.1014L20.6738 25.2926ZM14.0414 21.1484C13.0285 20.2992 12.1184 19.3941 11.3156 18.4307L9.77908 19.711C10.6636 20.7725 11.6593 21.7612 12.7565 22.6811L14.0414 21.1484ZM9.18304 15.2697C8.59445 14.1632 8.11917 12.9889 7.76419 11.7423L5.84067 12.2901C6.23416 13.672 6.76227 14.9775 7.41733 16.209L9.18304 15.2697ZM7.0838 7.9846C7.02826 7.34055 7.00003 6.67917 7.00003 6H5.00003C5.00003 6.73463 5.03058 7.45337 5.09119 8.1564L7.0838 7.9846Z" fill="#FC4E0A"/>
</svg>
