<svg width="377" height="179" viewBox="0 0 377 179" fill="none" xmlns="http://www.w3.org/2000/svg">
<path d="M371.001 0L376.511 10.1475L364.968 9.84571L371.001 0ZM194.001 161L194.015 162L193.975 162L193.934 161.998L194.001 161ZM11.3334 173C11.3334 175.946 8.94556 178.333 6.00003 178.333C3.0545 178.333 0.666687 175.946 0.666687 173C0.666687 170.054 3.0545 167.667 6.00003 167.667C8.94556 167.667 11.3334 170.054 11.3334 173ZM371.833 6.0996C371.793 7.44692 371.75 8.787 371.706 10.1197L369.707 10.0526C369.751 8.72253 369.794 7.38496 369.834 6.0399L371.833 6.0996ZM371.56 14.1696C371.509 15.5136 371.455 16.85 371.397 18.1787L369.399 18.0919C369.457 16.767 369.511 15.4341 369.562 14.0933L371.56 14.1696ZM371.209 22.2376C371.142 23.5824 371.071 24.9191 370.996 26.2475L368.999 26.1343C369.074 24.8108 369.145 23.4788 369.211 22.1384L371.209 22.2376ZM370.749 30.3028C370.662 31.649 370.569 32.9866 370.471 34.3154L368.477 34.1678C368.574 32.8454 368.667 31.5138 368.754 30.1733L370.749 30.3028ZM370.151 38.3627C370.037 39.709 369.917 41.046 369.79 42.3735L367.799 42.1825C367.925 40.8629 368.045 39.5336 368.158 38.1945L370.151 38.3627ZM369.376 46.4128C369.23 47.7571 369.075 49.0913 368.912 50.4154L366.927 50.1705C367.089 48.8562 367.243 47.5314 367.388 46.1962L369.376 46.4128ZM368.383 54.4448C368.196 55.7842 368 57.1129 367.793 58.4307L365.817 58.1202C366.022 56.8142 366.217 55.497 366.402 54.1686L368.383 54.4448ZM367.123 62.4455C366.887 63.7769 366.64 65.0967 366.38 66.4049L364.418 66.0153C364.675 64.7213 364.92 63.4152 365.153 62.097L367.123 62.4455ZM365.54 70.395C365.245 71.7189 364.936 73.0303 364.612 74.3292L362.672 73.8455C362.991 72.5634 363.296 71.2683 363.588 69.9601L365.54 70.395ZM363.575 78.2648C363.21 79.5753 362.828 80.8723 362.429 82.1559L360.519 81.5623C360.912 80.2983 361.288 79.0202 361.648 77.7281L363.575 78.2648ZM361.163 86.0154C360.717 87.3039 360.251 88.578 359.766 89.8376L357.9 89.1185C358.377 87.881 358.834 86.6285 359.273 85.3611L361.163 86.0154ZM358.239 93.5958C357.702 94.8507 357.143 96.0903 356.561 97.3144L354.755 96.456C355.325 95.256 355.873 94.0403 356.401 92.8088L358.239 93.5958ZM354.741 100.951C354.107 102.155 353.449 103.343 352.765 104.516L351.037 103.508C351.706 102.361 352.351 101.198 352.972 100.019L354.741 100.951ZM350.635 107.988C349.899 109.13 349.136 110.255 348.347 111.364L346.718 110.204C347.489 109.12 348.235 108.02 348.954 106.904L350.635 107.988ZM345.908 114.624C345.071 115.691 344.206 116.74 343.312 117.773L341.8 116.465C342.672 115.456 343.517 114.431 344.335 113.389L345.908 114.624ZM340.575 120.791C339.645 121.769 338.687 122.73 337.7 123.675L336.317 122.231C337.281 121.307 338.217 120.368 339.125 119.413L340.575 120.791ZM334.683 126.435C333.673 127.317 332.636 128.183 331.57 129.034L330.322 127.471C331.365 126.638 332.38 125.791 333.367 124.928L334.683 126.435ZM328.307 131.523C327.231 132.309 326.128 133.079 324.998 133.836L323.886 132.173C324.994 131.432 326.074 130.677 327.128 129.908L328.307 131.523ZM321.549 136.045C320.415 136.741 319.255 137.424 318.068 138.093L317.086 136.351C318.251 135.694 319.39 135.023 320.504 134.34L321.549 136.045ZM314.47 140.039C313.29 140.651 312.087 141.25 310.858 141.837L309.996 140.032C311.205 139.455 312.389 138.865 313.549 138.264L314.47 140.039ZM307.135 143.544C305.923 144.077 304.69 144.599 303.432 145.11L302.68 143.257C303.919 142.753 305.136 142.239 306.329 141.714L307.135 143.544ZM299.598 146.606C298.366 147.067 297.114 147.518 295.84 147.959L295.185 146.069C296.444 145.634 297.681 145.188 298.896 144.733L299.598 146.606ZM291.953 149.253C290.693 149.655 289.413 150.049 288.113 150.433L287.546 148.515C288.832 148.135 290.098 147.746 291.344 147.348L291.953 149.253ZM284.211 151.542C282.916 151.895 281.602 152.24 280.268 152.576L279.779 150.637C281.101 150.304 282.402 149.963 283.684 149.613L284.211 151.542ZM276.375 153.52C275.06 153.826 273.726 154.125 272.373 154.415L271.953 152.46C273.295 152.172 274.617 151.876 275.922 151.572L276.375 153.52ZM268.448 155.225C267.143 155.483 265.821 155.735 264.483 155.979L264.124 154.011C265.453 153.769 266.764 153.519 268.059 153.263L268.448 155.225ZM260.421 156.689C259.131 156.905 257.826 157.114 256.506 157.318L256.202 155.341C257.514 155.139 258.81 154.931 260.091 154.716L260.421 156.689ZM252.5 157.908C251.158 158.097 249.8 158.28 248.428 158.457L248.172 156.473C249.537 156.297 250.887 156.116 252.221 155.928L252.5 157.908ZM244.49 158.94C243.163 159.096 241.823 159.246 240.468 159.39L240.256 157.401C241.604 157.258 242.937 157.109 244.257 156.954L244.49 158.94ZM236.363 159.805C235.063 159.93 233.749 160.05 232.423 160.164L232.251 158.172C233.571 158.058 234.878 157.939 236.172 157.814L236.363 159.805ZM228.407 160.493C227.055 160.597 225.69 160.697 224.313 160.791L224.176 158.795C225.548 158.702 226.907 158.603 228.252 158.499L228.407 160.493ZM220.317 161.047C218.996 161.127 217.664 161.202 216.321 161.272L216.216 159.274C217.555 159.205 218.882 159.13 220.197 159.051L220.317 161.047ZM212.254 161.469C210.904 161.529 209.542 161.585 208.168 161.636L208.094 159.638C209.462 159.586 210.82 159.531 212.165 159.471L212.254 161.469ZM204.205 161.771C202.873 161.812 201.531 161.848 200.178 161.881L200.129 159.882C201.478 159.849 202.816 159.813 204.144 159.772L204.205 161.771ZM196.086 161.966C195.398 161.979 194.708 161.99 194.015 162L193.986 160C194.677 159.99 195.365 159.979 196.05 159.967L196.086 161.966ZM193.934 161.998C193.318 161.957 192.667 161.905 191.984 161.844L192.162 159.852C192.833 159.912 193.468 159.962 194.067 160.002L193.934 161.998ZM187.936 161.419C186.67 161.27 185.327 161.1 183.911 160.911L184.176 158.929C185.583 159.116 186.916 159.285 188.17 159.433L187.936 161.419ZM179.881 160.352C178.581 160.166 177.232 159.968 175.839 159.76L176.135 157.782C177.525 157.989 178.869 158.187 180.165 158.372L179.881 160.352ZM171.893 159.162C170.592 158.963 169.259 158.757 167.895 158.545L168.203 156.569C169.565 156.78 170.897 156.986 172.196 157.185L171.893 159.162ZM163.873 157.917C162.578 157.714 161.26 157.508 159.92 157.298L160.23 155.322C161.57 155.532 162.887 155.738 164.182 155.941L163.873 157.917ZM155.906 156.669C154.599 156.465 153.275 156.259 151.935 156.051L152.241 154.075C153.583 154.283 154.907 154.489 156.214 154.693L155.906 156.669ZM147.939 155.435C146.622 155.233 145.292 155.031 143.949 154.828L144.248 152.85C145.592 153.053 146.924 153.256 148.242 153.458L147.939 155.435ZM139.962 154.231C138.639 154.034 137.305 153.838 135.962 153.643L136.25 151.664C137.595 151.859 138.931 152.056 140.255 152.252L139.962 154.231ZM131.976 153.07C130.649 152.882 129.315 152.695 127.973 152.51L128.247 150.529C129.591 150.714 130.928 150.902 132.257 151.09L131.976 153.07ZM123.983 151.968C122.653 151.79 121.318 151.614 119.979 151.441L120.235 149.457C121.577 149.631 122.916 149.807 124.248 149.985L123.983 151.968ZM115.982 150.935C114.649 150.769 113.314 150.607 111.977 150.448L112.212 148.462C113.553 148.621 114.892 148.784 116.228 148.95L115.982 150.935ZM107.972 149.985C106.637 149.835 105.301 149.688 103.965 149.546L104.177 147.558C105.517 147.7 106.857 147.847 108.196 147.998L107.972 149.985ZM99.9532 149.134C98.6158 149.001 97.2793 148.873 95.9449 148.75L96.1277 146.759C97.4673 146.882 98.8087 147.01 100.151 147.144L99.9532 149.134ZM91.9255 148.398C90.5854 148.285 89.2484 148.179 87.9155 148.079L88.0649 146.085C89.4038 146.185 90.7466 146.292 92.0923 146.404L91.9255 148.398ZM83.8893 147.797C82.5469 147.709 81.2098 147.628 79.8791 147.555L79.9888 145.558C81.3266 145.632 82.6706 145.713 84.0197 145.801L83.8893 147.797ZM75.8459 147.356C74.502 147.298 73.1661 147.248 71.8392 147.207L71.9012 145.208C73.2368 145.249 74.5811 145.3 75.9328 145.358L75.8459 147.356ZM67.7983 147.109C66.4552 147.086 65.123 147.072 63.8027 147.07L63.8069 145.07C65.1376 145.072 66.48 145.086 67.8327 145.109L67.7983 147.109ZM59.7535 147.095C58.4079 147.116 57.0768 147.148 55.7615 147.192L55.6935 145.194C57.022 145.148 58.3658 145.116 59.7234 145.096L59.7535 147.095ZM51.726 147.373C50.3738 147.448 49.041 147.538 47.7292 147.644L47.5688 145.65C48.8978 145.543 50.247 145.452 51.6147 145.376L51.726 147.373ZM43.7456 148.019C42.3873 148.167 41.0553 148.334 39.7516 148.52L39.4693 146.54C40.7961 146.351 42.1501 146.181 43.529 146.031L43.7456 148.019ZM35.8336 149.154C34.4892 149.399 33.1807 149.667 31.9106 149.96L31.4607 148.012C32.7633 147.711 34.1023 147.436 35.4752 147.186L35.8336 149.154ZM28.0432 150.966C26.7405 151.346 25.488 151.756 24.2887 152.199L23.5964 150.322C24.8429 149.862 26.1398 149.437 27.4833 149.046L28.0432 150.966ZM20.6738 153.707C19.4426 154.288 18.2858 154.911 17.2071 155.578L16.1553 153.877C17.3038 153.167 18.5275 152.509 19.8203 151.899L20.6738 153.707ZM14.0414 157.852C13.0285 158.701 12.1184 159.606 11.3156 160.569L9.77908 159.289C10.6636 158.227 11.6593 157.239 12.7565 156.319L14.0414 157.852ZM9.18304 163.73C8.59445 164.837 8.11917 166.011 7.76419 167.258L5.84067 166.71C6.23416 165.328 6.76227 164.022 7.41733 162.791L9.18304 163.73ZM7.0838 171.015C7.02826 171.659 7.00003 172.321 7.00003 173H5.00003C5.00003 172.265 5.03058 171.547 5.09119 170.844L7.0838 171.015Z" fill="#FC4E0A"/>
</svg>
