<svg width="333" height="179" viewBox="0 0 333 179" fill="none" xmlns="http://www.w3.org/2000/svg">
<path d="M6.12199 178.209L11.8691 168.194L0.322138 168.224L6.12199 178.209ZM6.12199 154.267L5.12258 154.233L6.12199 154.267ZM7.81863 147.292L8.78955 147.532L7.81863 147.292ZM9.93943 131.268L10.9327 131.384L9.93943 131.268ZM18.4226 98.8438L17.5035 98.4499L18.4226 98.8438ZM70.1229 61.5178L69.838 60.5592L70.1229 61.5178ZM127.526 48.4631L127.566 49.4623L127.526 48.4631ZM169.282 48.6045L169.191 49.6003L169.282 48.6045ZM187.238 56.4278L187.917 55.6941L187.238 56.4278ZM207.645 85.1764L206.772 85.6643L207.645 85.1764ZM202.508 129.76L201.915 128.955L202.508 129.76ZM176.163 130.043L175.908 131.01L176.163 130.043ZM159.008 118.449L158.043 118.71L159.008 118.449ZM166.643 63.6857L167.452 64.2727L166.643 63.6857ZM184.457 43.7973L183.848 43.0047L184.457 43.7973ZM194.543 36.8694L194.99 37.7638L194.543 36.8694ZM216.222 27.208L215.826 26.29L216.222 27.208ZM283.051 12.598L283.249 13.5783L283.051 12.598ZM314.439 7.69664L314.531 8.69234L314.439 7.69664ZM322.302 6C322.302 8.94552 324.689 11.3333 327.635 11.3333C330.58 11.3333 332.968 8.94552 332.968 6C332.968 3.05448 330.58 0.666667 327.635 0.666667C324.689 0.666667 322.302 3.05448 322.302 6ZM7.08327 172.212C7.06849 170.837 7.05327 169.597 7.03851 168.222L5.03863 168.244C5.05244 169.53 5.06959 170.95 5.08339 172.234L7.08327 172.212ZM7.00524 164.237C6.99858 162.909 6.99762 161.583 7.00614 160.258L5.00618 160.245C4.99761 161.58 4.99858 162.914 5.00526 164.247L7.00524 164.237ZM7.06397 156.285C7.07964 155.624 7.09862 154.962 7.1214 154.302L5.12258 154.233C5.09954 154.901 5.08035 155.57 5.06453 156.238L7.06397 156.285ZM7.1214 154.302C7.13995 153.764 7.21222 153.226 7.3223 152.681L5.36189 152.285C5.23508 152.913 5.14571 153.562 5.12258 154.233L7.1214 154.302ZM8.27804 149.32C8.45926 148.741 8.63903 148.142 8.78955 147.532L6.84771 147.053C6.71208 147.603 6.54691 148.155 6.3691 148.724L8.27804 149.32ZM8.78955 147.532C8.95558 146.858 9.10372 146.185 9.23707 145.513L7.27525 145.124C7.14734 145.769 7.00577 146.412 6.84771 147.053L8.78955 147.532ZM9.88859 141.453C10.063 140.1 10.203 138.748 10.3331 137.401L8.34231 137.209C8.213 138.548 8.07538 139.876 7.90501 141.198L9.88859 141.453ZM10.7177 133.379C10.7848 132.713 10.8555 132.048 10.9327 131.384L8.94612 131.153C8.86738 131.83 8.79559 132.506 8.72778 133.179L10.7177 133.379ZM10.9327 131.384C11.0137 130.688 11.099 129.997 11.1889 129.312L9.20585 129.052C9.11468 129.747 9.02816 130.447 8.94612 131.153L10.9327 131.384ZM11.7958 125.183C12.0222 123.798 12.2696 122.432 12.5394 121.08L10.5781 120.688C10.3036 122.064 10.052 123.453 9.822 124.86L11.7958 125.183ZM13.4303 117.009C13.7532 115.656 14.101 114.313 14.4752 112.976L12.5493 112.437C12.168 113.799 11.8137 115.166 11.4849 116.545L13.4303 117.009ZM15.6768 108.988C16.1009 107.674 16.5524 106.362 17.0329 105.048L15.1546 104.361C14.6654 105.699 14.2055 107.035 13.7735 108.373L15.6768 108.988ZM18.5371 101.161C18.7981 100.522 19.0662 99.8806 19.3418 99.2377L17.5035 98.4499C17.2234 99.1033 16.9508 99.7551 16.6853 100.406L18.5371 101.161ZM19.3418 99.2377C19.6163 98.5972 19.9235 97.9458 20.2612 97.2865L18.4811 96.3748C18.1243 97.0715 17.7974 97.7642 17.5035 98.4499L19.3418 99.2377ZM22.454 93.5304C23.2288 92.3423 24.0805 91.1501 24.9948 89.9695L23.4135 88.7449C22.4686 89.9651 21.5852 91.2012 20.7787 92.4379L22.454 93.5304ZM27.8017 86.5995C28.7737 85.5112 29.7882 84.4486 30.8324 83.4253L29.4326 81.9968C28.3567 83.0512 27.3115 84.1459 26.31 85.2674L27.8017 86.5995ZM34.0682 80.4635C35.202 79.4964 36.3523 78.5878 37.5043 77.7525L36.3302 76.1333C35.1328 77.0016 33.9413 77.943 32.7703 78.9418L34.0682 80.4635ZM41.1464 75.3661C41.7862 74.9932 42.4206 74.649 43.0469 74.3358L42.1525 72.5469C41.4852 72.8806 40.8132 73.2453 40.1393 73.6381L41.1464 75.3661ZM43.0469 74.3358C43.6099 74.0543 44.1697 73.7738 44.7266 73.4946L43.8303 71.7067C43.2735 71.9858 42.7144 72.266 42.1525 72.5469L43.0469 74.3358ZM48.0822 71.8155C49.2077 71.2549 50.3258 70.7022 51.4415 70.1593L50.5665 68.3609C49.4433 68.9074 48.3193 69.463 47.1905 70.0253L48.0822 71.8155ZM54.8154 68.549C55.9447 68.0221 57.0759 67.5079 58.2141 67.0085L57.4106 65.177C56.2563 65.6834 55.1109 66.2042 53.9697 66.7366L54.8154 68.549ZM61.6463 65.5607C62.7907 65.0984 63.9465 64.6529 65.1184 64.2266L64.4346 62.3471C63.2391 62.782 62.0615 63.2359 60.8972 63.7063L61.6463 65.5607ZM68.6338 63.0239C69.22 62.8363 69.8113 62.6537 70.4079 62.4763L69.838 60.5592C69.2278 60.7406 68.6234 60.9273 68.0242 61.1191L68.6338 63.0239ZM70.4079 62.4763C71.0828 62.2757 71.7573 62.0737 72.4314 61.8708L71.8549 59.9557C71.1827 60.158 70.5104 60.3593 69.838 60.5592L70.4079 62.4763ZM76.4708 60.6444C77.8153 60.2337 79.1607 59.8209 80.504 59.4099L79.9188 57.4974C78.5734 57.9091 77.2307 58.321 75.8864 58.7317L76.4708 60.6444ZM84.5353 58.1821C85.8797 57.7754 87.2241 57.3724 88.5693 56.9756L88.0034 55.0573C86.6527 55.4558 85.3037 55.8601 83.9563 56.2677L84.5353 58.1821ZM92.6101 55.8053C93.9591 55.4228 95.3094 55.0489 96.6615 54.6862L96.1434 52.7545C94.7809 53.12 93.4214 53.4964 92.0645 53.8812L92.6101 55.8053ZM100.727 53.6335C102.085 53.2952 103.445 52.9707 104.809 52.6624L104.367 50.7117C102.989 51.0235 101.614 51.3513 100.243 51.6928L100.727 53.6335ZM108.908 51.7885C110.277 51.5152 111.65 51.2606 113.027 51.0271L112.692 49.0552C111.295 49.2922 109.904 49.5503 108.517 49.8272L108.908 51.7885ZM117.163 50.3935C118.542 50.2056 119.926 50.041 121.315 49.9023L121.116 47.9122C119.702 48.0534 118.295 48.2208 116.893 48.4118L117.163 50.3935ZM125.48 49.5673C126.174 49.5253 126.869 49.4901 127.566 49.4623L127.486 47.4639C126.775 47.4923 126.066 47.5281 125.359 47.571L125.48 49.5673ZM127.566 49.4623C128.259 49.4345 128.955 49.4068 129.653 49.3792L129.574 47.3807C128.876 47.4083 128.18 47.4361 127.486 47.4639L127.566 49.4623ZM133.826 49.2192C135.211 49.1684 136.602 49.1202 137.997 49.0764L137.934 47.0774C136.535 47.1213 135.141 47.1697 133.752 47.2206L133.826 49.2192ZM142.166 48.9609C143.554 48.928 144.944 48.9013 146.334 48.8825L146.307 46.8827C144.909 46.9016 143.513 46.9284 142.119 46.9614L142.166 48.9609ZM150.5 48.8517C151.89 48.8505 153.279 48.859 154.664 48.8789L154.692 46.8791C153.296 46.859 151.898 46.8505 150.499 46.8517L150.5 48.8517ZM158.823 48.9753C160.213 49.0204 161.599 49.079 162.977 49.1529L163.084 47.1558C161.691 47.0811 160.291 47.0219 158.888 46.9763L158.823 48.9753ZM167.123 49.4247C167.814 49.4787 168.504 49.5372 169.191 49.6003L169.373 47.6087C168.677 47.5447 167.979 47.4855 167.278 47.4308L167.123 49.4247ZM169.191 49.6003C170.013 49.6758 170.816 49.7759 171.601 49.9014L171.917 47.9264C171.086 47.7936 170.238 47.6881 169.373 47.6087L169.191 49.6003ZM176.296 51.0272C177.833 51.532 179.3 52.1624 180.711 52.9275L181.664 51.1694C180.146 50.3461 178.568 49.6686 176.92 49.1271L176.296 51.0272ZM184.723 55.5862C185.344 56.078 185.955 56.6027 186.559 57.1616L187.917 55.6941C187.278 55.1017 186.627 54.5434 185.965 54.0187L184.723 55.5862ZM186.559 57.1616C187.096 57.6593 187.621 58.162 188.133 58.6696L189.541 57.2485C189.012 56.7254 188.472 56.2072 187.917 55.6941L186.559 57.1616ZM191.13 61.8387C192.103 62.9364 193.032 64.0549 193.925 65.1934L195.499 63.9588C194.582 62.7909 193.628 61.6416 192.627 60.5122L191.13 61.8387ZM196.533 68.7061C197.373 69.8998 198.185 71.1133 198.978 72.3461L200.66 71.2646C199.854 70.0113 199.027 68.7742 198.168 67.5548L196.533 68.7061ZM201.293 76.0826C202.043 77.3335 202.782 78.6017 203.518 79.8869L205.254 78.8931C204.513 77.5995 203.767 76.3193 203.009 75.0541L201.293 76.0826ZM205.692 83.7329C206.051 84.3731 206.41 85.0168 206.772 85.6643L208.518 84.6886C208.156 84.0414 207.796 83.3968 207.437 82.7556L205.692 83.7329ZM206.772 85.6643C207.112 86.2725 207.431 86.8469 207.73 87.3971L209.487 86.4411C209.182 85.881 208.859 85.2989 208.518 84.6886L206.772 85.6643ZM209.474 90.8765C209.999 92.0734 210.401 93.2263 210.691 94.465L212.639 94.0094C212.316 92.6323 211.871 91.3627 211.306 90.0736L209.474 90.8765ZM211.211 98.2299C211.246 98.8365 211.264 99.4783 211.264 100.163H213.264C213.264 99.4444 213.245 98.7643 213.208 98.1155L211.211 98.2299ZM211.264 100.163C211.264 100.828 211.261 101.501 211.255 102.18L213.255 102.198C213.261 101.511 213.264 100.832 213.264 100.163H211.264ZM211.154 106.194C211.094 107.52 211.004 108.852 210.867 110.177L212.856 110.383C212.998 109.012 213.091 107.64 213.152 106.284L211.154 106.194ZM210.303 114.104C210.057 115.408 209.75 116.686 209.366 117.927L211.277 118.518C211.686 117.195 212.011 115.842 212.269 114.475L210.303 114.104ZM207.951 121.561C207.39 122.726 206.736 123.837 205.973 124.88L207.588 126.061C208.428 124.911 209.144 123.694 209.753 122.429L207.951 121.561ZM203.405 127.737C202.937 128.161 202.441 128.567 201.915 128.955L203.101 130.565C203.682 130.137 204.23 129.688 204.748 129.219L203.405 127.737ZM201.915 128.955C201.34 129.379 200.741 129.747 200.121 130.065L201.035 131.845C201.747 131.479 202.438 131.054 203.101 130.565L201.915 128.955ZM196.099 131.433C194.713 131.705 193.264 131.821 191.778 131.815L191.771 133.815C193.363 133.821 194.946 133.698 196.485 133.395L196.099 131.433ZM187.379 131.492C185.906 131.295 184.434 131.021 182.987 130.707L182.563 132.662C184.048 132.984 185.575 133.268 187.114 133.474L187.379 131.492ZM178.61 129.651C177.86 129.457 177.129 129.263 176.417 129.076L175.908 131.01C176.616 131.196 177.353 131.392 178.108 131.587L178.61 129.651ZM176.417 129.076C175.836 128.923 175.252 128.771 174.661 128.613L174.146 130.546C174.741 130.704 175.332 130.859 175.908 131.01L176.417 129.076ZM171.206 127.625C170.065 127.264 168.951 126.865 167.89 126.403L167.092 128.238C168.234 128.734 169.417 129.156 170.603 129.532L171.206 127.625ZM164.842 124.772C163.887 124.136 163.029 123.411 162.295 122.572L160.79 123.89C161.657 124.88 162.655 125.718 163.733 126.436L164.842 124.772ZM160.524 119.772C160.31 119.277 160.125 118.751 159.973 118.188L158.043 118.71C158.219 119.363 158.435 119.981 158.688 120.566L160.524 119.772ZM159.973 118.188C159.795 117.529 159.623 116.872 159.458 116.219L157.519 116.709C157.687 117.373 157.861 118.04 158.043 118.71L159.973 118.188ZM158.534 112.258C158.248 110.915 157.993 109.586 157.772 108.27L155.799 108.601C156.026 109.948 156.286 111.306 156.578 112.675L158.534 112.258ZM157.198 104.258C157.039 102.903 156.919 101.56 156.84 100.229L154.843 100.348C154.925 101.719 155.048 103.099 155.211 104.49L157.198 104.258ZM156.727 96.1908C156.733 94.8372 156.785 93.4946 156.885 92.1619L154.89 92.0124C154.787 93.3935 154.733 94.783 154.727 96.1818L156.727 96.1908ZM157.335 88.1604C157.536 86.8356 157.788 85.5189 158.093 84.2092L156.145 83.755C155.828 85.1168 155.566 86.485 155.358 87.861L157.335 88.1604ZM159.162 80.3305C159.566 79.0658 160.023 77.8059 160.536 76.5496L158.684 75.794C158.151 77.0986 157.677 78.4077 157.257 79.7225L159.162 80.3305ZM162.197 72.8817C162.787 71.6992 163.429 70.5184 164.124 69.3386L162.402 68.3226C161.683 69.5419 161.018 70.7638 160.407 71.9892L162.197 72.8817ZM166.29 65.9276C166.665 65.376 167.052 64.8244 167.452 64.2727L165.833 63.0987C165.422 63.6664 165.023 64.2343 164.636 64.8027L166.29 65.9276ZM167.452 64.2727C167.886 63.6743 168.323 63.0743 168.764 62.4741L167.153 61.2899C166.709 61.8944 166.269 62.4978 165.833 63.0987L167.452 64.2727ZM171.431 58.9186C172.33 57.7486 173.248 56.5883 174.187 55.4478L172.643 54.1764C171.687 55.3372 170.756 56.5154 169.845 57.6998L171.431 58.9186ZM177.071 52.0993C178.061 51.005 179.075 49.9415 180.118 48.919L178.718 47.4907C177.643 48.5445 176.601 49.6373 175.587 50.7578L177.071 52.0993ZM183.363 45.9628C183.923 45.4915 184.491 45.0334 185.067 44.5899L183.848 43.0047C183.247 43.4669 182.656 43.9434 182.075 44.4328L183.363 45.9628ZM185.067 44.5899C185.487 44.2667 185.892 43.9517 186.284 43.6447L185.052 42.0693C184.662 42.3747 184.262 42.6861 183.848 43.0047L185.067 44.5899ZM188.693 41.7709C189.5 41.1568 190.295 40.5748 191.131 40.0132L190.016 38.353C189.136 38.9439 188.307 39.5512 187.482 40.1798L188.693 41.7709ZM193.671 38.4582C194.091 38.2253 194.53 37.994 194.99 37.7638L194.096 35.975C193.61 36.2177 193.147 36.462 192.702 36.7087L193.671 38.4582ZM194.99 37.7638C195.577 37.4705 196.165 37.1812 196.754 36.8954L195.882 35.0958C195.285 35.385 194.69 35.6778 194.096 35.975L194.99 37.7638ZM200.314 35.2157C201.507 34.6666 202.705 34.1282 203.907 33.5967L203.099 31.7675C201.889 32.3022 200.682 32.8448 199.478 33.3988L200.314 35.2157ZM207.525 32.0192C208.734 31.4984 209.945 30.9811 211.159 30.4633L210.374 28.6237C209.16 29.1416 207.946 29.6601 206.734 30.1826L207.525 32.0192ZM214.799 28.9089C215.405 28.649 216.012 28.3882 216.619 28.1259L215.826 26.29C215.221 26.5513 214.616 26.8114 214.011 27.0706L214.799 28.9089ZM216.619 28.1259C217.196 27.8767 217.775 27.6334 218.357 27.396L217.601 25.5443C217.007 25.7868 216.415 26.0353 215.826 26.29L216.619 28.1259ZM221.876 26.038C223.057 25.6074 224.247 25.198 225.445 24.8081L224.826 22.9064C223.607 23.3031 222.395 23.72 221.191 24.159L221.876 26.038ZM229.056 23.6957C230.265 23.3436 231.48 23.009 232.702 22.6898L232.196 20.7547C230.958 21.0783 229.724 21.4179 228.497 21.7755L229.056 23.6957ZM236.376 21.7788C237.604 21.4899 238.837 21.2146 240.074 20.9509L239.657 18.9948C238.407 19.2613 237.16 19.5397 235.918 19.832L236.376 21.7788ZM243.79 20.1942C245.03 19.9527 246.274 19.7208 247.521 19.4968L247.167 17.5283C245.912 17.7539 244.658 17.9875 243.408 18.231L243.79 20.1942ZM251.264 18.847C252.513 18.6371 253.764 18.4331 255.016 18.2331L254.7 16.2581C253.444 16.4588 252.188 16.6637 250.932 16.8747L251.264 18.847ZM258.775 17.6433C260.03 17.4493 261.285 17.2576 262.539 17.066L262.238 15.0889C260.983 15.2805 259.726 15.4725 258.47 15.6668L258.775 17.6433ZM266.307 16.4895C267.565 16.2958 268.822 16.1005 270.076 15.9016L269.763 13.9263C268.512 14.1245 267.259 14.3194 266.002 14.5127L266.307 16.4895ZM273.845 15.2905C275.103 15.0811 276.359 14.8661 277.611 14.6436L277.261 12.6745C276.017 12.8955 274.769 13.1092 273.517 13.3176L273.845 15.2905ZM281.371 13.9483C281.998 13.8275 282.624 13.7042 283.249 13.5783L282.853 11.6178C282.235 11.7425 281.615 11.8646 280.993 11.9844L281.371 13.9483ZM283.249 13.5783C283.897 13.4476 284.545 13.318 285.193 13.1896L284.805 11.2278C284.154 11.3566 283.504 11.4866 282.853 11.6178L283.249 13.5783ZM289.085 12.4346C290.384 12.1884 291.683 11.9482 292.983 11.7151L292.629 9.74648C291.323 9.98086 290.018 10.2223 288.713 10.4697L289.085 12.4346ZM296.886 11.0377C298.188 10.8196 299.491 10.6098 300.795 10.4093L300.491 8.43249C299.177 8.63447 297.866 8.84571 296.555 9.06512L296.886 11.0377ZM304.711 9.83659C306.017 9.6558 307.325 9.48536 308.634 9.32635L308.393 7.34093C307.072 7.50136 305.753 7.67324 304.437 7.85548L304.711 9.83659ZM312.564 8.88509C313.219 8.81769 313.875 8.75339 314.531 8.69234L314.346 6.70094C313.683 6.76261 313.021 6.82754 312.359 6.89559L312.564 8.88509ZM314.531 8.69234C315.012 8.64761 315.552 8.62158 316.143 8.60532L316.088 6.60608C315.477 6.62291 314.888 6.65051 314.346 6.70094L314.531 8.69234ZM319.497 8.55756C320.626 8.53695 321.801 8.49454 322.936 8.38032L322.735 6.39038C321.682 6.49643 320.57 6.53763 319.46 6.5579L319.497 8.55756ZM326.453 7.67234C327.072 7.45783 327.661 7.18454 328.19 6.83205L327.08 5.16795C326.723 5.40614 326.294 5.61052 325.798 5.7828L326.453 7.67234Z" fill="#FC4E0A"/>
</svg>
