<svg width="355" height="115" viewBox="0 0 355 115" fill="none" xmlns="http://www.w3.org/2000/svg">
<path d="M6.99998 0L0.488082 9.53565L12.0021 10.4073L6.99998 0ZM203 94.5L202.985 95.4999L203.026 95.5005L203.066 95.4978L203 94.5ZM343.667 109.5C343.667 112.446 346.054 114.833 349 114.833C351.946 114.833 354.333 112.446 354.333 109.5C354.333 106.554 351.946 104.167 349 104.167C346.054 104.167 343.667 106.554 343.667 109.5ZM5.86788 5.99352C5.93834 7.3022 6.07183 8.64645 6.27306 10.0214L8.25198 9.73173C8.05944 8.4162 7.93212 7.13272 7.86498 5.88598L5.86788 5.99352ZM7.02803 13.9929C7.32642 15.2716 7.6827 16.5712 8.10028 17.8883L10.0068 17.2839C9.60468 16.0156 9.26218 14.766 8.9757 13.5384L7.02803 13.9929ZM9.46024 21.6889C9.94677 22.909 10.4862 24.1407 11.0812 25.3815L12.8846 24.5168C12.309 23.3163 11.7876 22.1259 11.318 20.9481L9.46024 21.6889ZM12.9392 28.9578C13.5816 30.1048 14.2723 31.2573 15.0132 32.4133L16.697 31.3341C15.9773 30.2111 15.307 29.0926 14.6842 27.9806L12.9392 28.9578ZM17.285 35.7468C18.0522 36.8084 18.863 37.8714 19.7188 38.9341L21.2766 37.6798C20.4423 36.6437 19.6526 35.6084 18.9059 34.5753L17.285 35.7468ZM22.3028 41.9858C23.1735 42.9651 24.0838 43.9431 25.0348 44.9186L26.4669 43.5225C25.537 42.5687 24.6476 41.6131 23.7975 40.6569L22.3028 41.9858ZM27.908 47.7397C28.862 48.6369 29.8517 49.531 30.8782 50.4211L32.1884 48.91C31.1821 48.0374 30.2123 47.1614 29.2783 46.2828L27.908 47.7397ZM33.9386 52.9738C34.9658 53.7984 36.026 54.6188 37.1198 55.434L38.3149 53.8304C37.2401 53.0293 36.1989 52.2236 35.1907 51.4142L33.9386 52.9738ZM40.359 57.7638C41.4325 58.5092 42.5355 59.2495 43.6686 59.9843L44.7568 58.3063C43.6411 57.5828 42.5556 56.8542 41.4997 56.121L40.359 57.7638ZM47.0854 62.1269C48.1944 62.7994 49.3299 63.4666 50.4925 64.128L51.4815 62.3897C50.3349 61.7374 49.2154 61.0796 48.1225 60.4168L47.0854 62.1269ZM54.0196 66.0719C55.166 66.6839 56.3369 67.2904 57.5326 67.8909L58.4302 66.1037C57.2491 65.5105 56.0931 64.9117 54.9615 64.3076L54.0196 66.0719ZM61.1425 69.6495C62.32 70.2059 63.5201 70.7566 64.743 71.3012L65.5567 69.4742C64.3472 68.9356 63.1608 68.3912 61.997 67.8412L61.1425 69.6495ZM68.4282 72.8945C69.6279 73.398 70.8483 73.8959 72.0899 74.3877L72.8265 72.5283C71.5973 72.0413 70.3893 71.5486 69.2022 71.0504L68.4282 72.8945ZM75.8491 75.834C77.0634 76.2877 78.2968 76.7358 79.5497 77.1781L80.2154 75.2921C78.9739 74.8539 77.7519 74.4099 76.5491 73.9605L75.8491 75.834ZM83.3666 78.487C84.5956 78.8964 85.8424 79.3003 87.1072 79.6984L87.7077 77.7907C86.4534 77.3958 85.2171 76.9954 83.9986 76.5895L83.3666 78.487ZM90.9345 80.8691C92.1909 81.2424 93.4642 81.6102 94.7548 81.9723L95.295 80.0467C94.0142 79.6873 92.7507 79.3223 91.5042 78.952L90.9345 80.8691ZM98.5774 83.0145C99.8652 83.3556 101.169 83.6911 102.49 84.0209L102.975 82.0804C101.663 81.753 100.368 81.4198 99.0895 81.0812L98.5774 83.0145ZM106.296 84.944C107.579 85.2465 108.878 85.5436 110.192 85.8352L110.625 83.8827C109.32 83.5929 108.03 83.2978 106.754 82.9973L106.296 84.944ZM114.094 86.6755C115.368 86.9415 116.655 87.2024 117.956 87.4582L118.342 85.4957C117.048 85.2415 115.769 84.9821 114.503 84.7178L114.094 86.6755ZM121.902 88.2098C123.188 88.4471 124.488 88.6795 125.801 88.9068L126.142 86.9361C124.836 86.7101 123.544 86.479 122.265 86.243L121.902 88.2098ZM129.698 89.5601C131.01 89.7729 132.335 89.9807 133.672 90.1834L133.972 88.206C132.641 88.0043 131.323 87.7975 130.018 87.5859L129.698 89.5601ZM137.581 90.7558C138.874 90.9387 140.179 91.1169 141.496 91.2904L141.757 89.3075C140.446 89.1349 139.148 88.9575 137.861 88.7755L137.581 90.7558ZM145.482 91.7962C146.782 91.9551 148.094 92.1095 149.417 92.2591L149.642 90.2718C148.325 90.1228 147.019 89.9692 145.724 89.811L145.482 91.7962ZM153.335 92.685C154.652 92.8224 155.979 92.9553 157.318 93.0836L157.509 91.0927C156.176 90.965 154.853 90.8327 153.542 90.6958L153.335 92.685ZM161.3 93.4486C162.593 93.5617 163.895 93.6707 165.208 93.7753L165.367 91.7816C164.059 91.6774 162.762 91.5689 161.474 91.4562L161.3 93.4486ZM169.177 94.0761C170.51 94.172 171.853 94.2635 173.207 94.3506L173.335 92.3547C171.987 92.268 170.648 92.1768 169.32 92.0812L169.177 94.0761ZM177.115 94.588C178.421 94.6627 179.736 94.7333 181.06 94.7997L181.161 92.8022C179.841 92.736 178.531 92.6657 177.23 92.5913L177.115 94.588ZM185.061 94.9866C186.386 95.0439 187.719 95.0971 189.061 95.1461L189.134 93.1475C187.796 93.0986 186.467 93.0455 185.148 92.9884L185.061 94.9866ZM192.975 95.2767C194.288 95.3163 195.609 95.352 196.94 95.3838L196.987 93.3843C195.661 93.3527 194.344 93.3171 193.035 93.2776L192.975 95.2767ZM200.957 95.4672C201.631 95.4791 202.307 95.49 202.985 95.4999L203.015 93.5001C202.338 93.4902 201.664 93.4794 200.992 93.4675L200.957 95.4672ZM203.066 95.4978C203.689 95.4563 204.326 95.4154 204.976 95.3753L204.853 93.3791C204.2 93.4194 203.56 93.4605 202.933 93.5022L203.066 95.4978ZM208.861 95.153C210.118 95.0866 211.415 95.0231 212.748 94.9632L212.658 92.9652C211.32 93.0254 210.018 93.0891 208.756 93.1558L208.861 95.153ZM216.634 94.8025C217.903 94.7546 219.199 94.7099 220.521 94.6689L220.459 92.6699C219.133 92.711 217.832 92.7558 216.559 92.8039L216.634 94.8025ZM224.41 94.5609C225.688 94.5296 226.986 94.5017 228.303 94.4777L228.266 92.478C226.945 92.5021 225.643 92.5301 224.361 92.5615L224.41 94.5609ZM232.198 94.4187C233.483 94.4032 234.783 94.3914 236.097 94.3836L236.086 92.3836C234.767 92.3914 233.463 92.4033 232.174 92.4188L232.198 94.4187ZM239.981 94.3725C241.265 94.3727 242.561 94.3769 243.867 94.3852L243.88 92.3853C242.57 92.3769 241.27 92.3727 239.981 92.3725L239.981 94.3725ZM247.758 94.4222C249.049 94.4385 250.347 94.4589 251.653 94.4838L251.691 92.4841C250.381 92.4592 249.078 92.4387 247.784 92.4223L247.758 94.4222ZM255.544 94.5705C256.834 94.6035 258.129 94.6408 259.428 94.6828L259.493 92.6839C258.189 92.6417 256.889 92.6042 255.595 92.5711L255.544 94.5705ZM263.316 94.8219C264.609 94.8726 265.906 94.9281 267.204 94.9885L267.297 92.9907C265.994 92.93 264.692 92.8744 263.395 92.8234L263.316 94.8219ZM271.089 95.1837C272.382 95.2536 273.677 95.3285 274.971 95.4087L275.094 93.4125C273.795 93.332 272.495 93.2568 271.197 93.1866L271.089 95.1837ZM278.852 95.6651C280.146 95.756 281.438 95.8523 282.729 95.9542L282.886 93.9604C281.59 93.858 280.291 93.7613 278.992 93.67L278.852 95.6651ZM286.602 96.2781C287.897 96.3924 289.188 96.5127 290.475 96.639L290.67 94.6486C289.377 94.5216 288.079 94.4007 286.778 94.2858L286.602 96.2781ZM294.341 97.039C295.633 97.1796 296.92 97.3267 298.199 97.4804L298.437 95.4947C297.151 95.34 295.857 95.1921 294.558 95.0508L294.341 97.039ZM302.051 97.9668C303.344 98.1382 304.629 98.3167 305.903 98.5027L306.192 96.5237C304.909 96.3364 303.615 96.1566 302.314 95.9842L302.051 97.9668ZM309.743 99.0907C311.03 99.2975 312.306 99.5123 313.568 99.7353L313.916 97.7659C312.643 97.5409 311.357 97.3244 310.06 97.116L309.743 99.0907ZM317.375 100.442C318.658 100.692 319.925 100.951 321.175 101.219L321.595 99.2637C320.332 98.9924 319.052 98.7307 317.757 98.4786L317.375 100.442ZM324.961 102.075C326.236 102.378 327.49 102.692 328.721 103.016L329.231 101.082C327.984 100.753 326.714 100.436 325.424 100.129L324.961 102.075ZM332.449 104.055C333.708 104.425 334.938 104.809 336.138 105.205L336.765 103.306C335.543 102.902 334.292 102.513 333.014 102.136L332.449 104.055ZM339.778 106.483C341.01 106.943 342.203 107.419 343.355 107.91L344.14 106.071C342.958 105.566 341.737 105.079 340.478 104.609L339.778 106.483ZM346.845 109.514C347.419 109.798 347.98 110.087 348.527 110.381L349.473 108.619C348.905 108.314 348.325 108.015 347.732 107.722L346.845 109.514Z" fill="#FC4E0A"/>
</svg>
