<svg width="377" height="179" viewBox="0 0 377 179" fill="none" xmlns="http://www.w3.org/2000/svg">
<path d="M6 0.5L0.489795 10.6475L12.0329 10.3457L6 0.5ZM183 161.5L182.985 162.5L183.026 162.5L183.067 162.498L183 161.5ZM365.667 173.5C365.667 176.446 368.055 178.833 371.001 178.833C373.946 178.833 376.334 176.446 376.334 173.5C376.334 170.554 373.946 168.167 371.001 168.167C368.055 168.167 365.667 170.554 365.667 173.5ZM5.16773 6.5996C5.20796 7.94692 5.25028 9.287 5.29508 10.6197L7.29395 10.5526C7.24924 9.22253 7.207 7.88496 7.16684 6.5399L5.16773 6.5996ZM5.44013 14.6696C5.4914 16.0136 5.54568 17.35 5.60338 18.6787L7.6015 18.5919C7.54395 17.267 7.48982 15.9341 7.43867 14.5933L5.44013 14.6696ZM5.792 22.7376C5.85878 24.0824 5.92962 25.4191 6.00498 26.7475L8.00177 26.6343C7.92669 25.3108 7.8561 23.9788 7.78954 22.6384L5.792 22.7376ZM6.25118 30.8028C6.33853 32.149 6.43113 33.4866 6.52948 34.8154L8.52403 34.6678C8.42614 33.3454 8.33396 32.0138 8.24699 30.6733L6.25118 30.8028ZM6.84966 38.8627C6.9633 40.209 7.08354 41.546 7.21092 42.8735L9.20178 42.6825C9.07516 41.3629 8.9556 40.0336 8.84258 38.6945L6.84966 38.8627ZM7.62432 46.9128C7.77079 48.2571 7.9254 49.5913 8.08872 50.9154L10.0737 50.6705C9.91156 49.3562 9.75804 48.0314 9.61255 46.6962L7.62432 46.9128ZM8.6176 54.9448C8.80437 56.2842 9.00099 57.6129 9.2081 58.9307L11.1838 58.6202C10.9786 57.3142 10.7837 55.997 10.5984 54.6686L8.6176 54.9448ZM9.87808 62.9455C10.1136 64.2769 10.361 65.5967 10.6208 66.9049L12.5825 66.5153C12.3255 65.2213 12.0807 63.9152 11.8475 62.597L9.87808 62.9455ZM11.4606 70.895C11.7556 72.2189 12.0645 73.5303 12.3882 74.8292L14.3288 74.3455C14.0093 73.0634 13.7042 71.7683 13.4128 70.4601L11.4606 70.895ZM13.4258 78.7648C13.7909 80.0753 14.1724 81.3723 14.5713 82.6559L16.4812 82.0623C16.0884 80.7983 15.7124 79.5202 15.3524 78.2281L13.4258 78.7648ZM15.8379 86.5154C16.284 87.8039 16.7493 89.078 17.2346 90.3376L19.1009 89.6185C18.6241 88.381 18.1667 87.1285 17.7278 85.8611L15.8379 86.5154ZM18.7614 94.0958C19.2986 95.3507 19.8575 96.5903 20.4392 97.8144L22.2457 96.956C21.6754 95.756 21.1272 94.5403 20.6001 93.3088L18.7614 94.0958ZM22.2593 101.451C22.8935 102.655 23.552 103.843 24.2355 105.016L25.9632 104.008C25.2944 102.861 24.6499 101.698 24.0288 100.519L22.2593 101.451ZM26.3653 108.488C27.1017 109.63 27.8643 110.755 28.654 111.864L30.2831 110.704C29.5114 109.62 28.7661 108.52 28.0461 107.404L26.3653 108.488ZM31.0928 115.124C31.9301 116.191 32.7949 117.24 33.6883 118.273L35.201 116.965C34.3284 115.956 33.4837 114.931 32.6658 113.889L31.0928 115.124ZM36.4259 121.291C37.3557 122.269 38.3136 123.23 39.3004 124.175L40.6837 122.731C39.7194 121.807 38.7835 120.868 37.8752 119.913L36.4259 121.291ZM42.3177 126.935C43.3275 127.817 44.365 128.683 45.431 129.534L46.6786 127.971C45.6355 127.138 44.6206 126.291 43.6333 125.428L42.3177 126.935ZM48.6933 132.023C49.7694 132.809 50.8723 133.579 52.0027 134.336L53.1148 132.673C52.0067 131.932 50.9261 131.177 49.8723 130.408L48.6933 132.023ZM55.4511 136.545C56.5856 137.241 57.7458 137.924 58.9324 138.593L59.9149 136.851C58.7494 136.194 57.6103 135.523 56.4971 134.84L55.4511 136.545ZM62.5311 140.539C63.7104 141.151 64.914 141.75 66.1426 142.337L67.0047 140.532C65.7955 139.955 64.6113 139.365 63.4517 138.764L62.5311 140.539ZM69.866 144.044C71.0772 144.577 72.3111 145.099 73.5682 145.61L74.3209 143.757C73.0811 143.253 71.8648 142.739 70.6716 142.214L69.866 144.044ZM77.403 147.106C78.6344 147.567 79.8869 148.018 81.1608 148.459L81.8152 146.569C80.5567 146.134 79.32 145.688 78.1045 145.233L77.403 147.106ZM85.0474 149.753C86.3075 150.155 87.5876 150.549 88.8881 150.933L89.4549 149.015C88.1683 148.635 86.9022 148.246 85.6563 147.848L85.0474 149.753ZM92.7898 152.042C94.0846 152.395 95.3987 152.74 96.7323 153.076L97.2212 151.137C95.8999 150.804 94.5985 150.463 93.3166 150.113L92.7898 152.042ZM100.625 154.02C101.941 154.326 103.275 154.625 104.628 154.915L105.047 152.96C103.706 152.672 102.383 152.376 101.079 152.072L100.625 154.02ZM108.553 155.725C109.858 155.983 111.179 156.235 112.518 156.479L112.877 154.511C111.548 154.269 110.236 154.019 108.941 153.763L108.553 155.725ZM116.58 157.189C117.869 157.405 119.174 157.614 120.494 157.818L120.799 155.841C119.487 155.639 118.191 155.431 116.91 155.216L116.58 157.189ZM124.5 158.408C125.843 158.597 127.2 158.78 128.573 158.957L128.828 156.973C127.463 156.797 126.114 156.616 124.78 156.428L124.5 158.408ZM132.511 159.44C133.837 159.596 135.178 159.746 136.532 159.89L136.744 157.901C135.397 157.758 134.063 157.609 132.744 157.454L132.511 159.44ZM140.637 160.305C141.938 160.43 143.251 160.55 144.577 160.664L144.75 158.672C143.43 158.558 142.123 158.439 140.828 158.314L140.637 160.305ZM148.594 160.993C149.946 161.097 151.31 161.197 152.688 161.291L152.824 159.295C151.453 159.202 150.094 159.103 148.748 158.999L148.594 160.993ZM156.684 161.547C158.004 161.627 159.336 161.702 160.68 161.772L160.784 159.774C159.446 159.705 158.119 159.63 156.804 159.551L156.684 161.547ZM164.746 161.969C166.097 162.029 167.459 162.085 168.832 162.136L168.907 160.138C167.538 160.086 166.181 160.031 164.836 159.971L164.746 161.969ZM172.796 162.271C174.127 162.312 175.47 162.348 176.823 162.381L176.871 160.382C175.522 160.349 174.184 160.313 172.857 160.272L172.796 162.271ZM180.915 162.466C181.602 162.479 182.293 162.49 182.985 162.5L183.015 160.5C182.324 160.49 181.636 160.479 180.95 160.467L180.915 162.466ZM183.067 162.498C183.683 162.457 184.333 162.405 185.017 162.344L184.839 160.352C184.168 160.412 183.532 160.462 182.933 160.502L183.067 162.498ZM189.065 161.919C190.33 161.77 191.674 161.6 193.09 161.411L192.825 159.429C191.417 159.616 190.084 159.785 188.831 159.933L189.065 161.919ZM197.119 160.852C198.42 160.666 199.768 160.468 201.161 160.26L200.866 158.282C199.476 158.489 198.132 158.687 196.836 158.872L197.119 160.852ZM205.108 159.662C206.408 159.463 207.742 159.257 209.105 159.045L208.798 157.069C207.435 157.28 206.104 157.486 204.805 157.685L205.108 159.662ZM213.128 158.417C214.423 158.214 215.741 158.008 217.081 157.798L216.771 155.822C215.431 156.032 214.113 156.238 212.819 156.441L213.128 158.417ZM221.095 157.169C222.401 156.965 223.725 156.759 225.066 156.551L224.759 154.575C223.418 154.783 222.093 154.989 220.787 155.193L221.095 157.169ZM229.061 155.935C230.378 155.733 231.709 155.531 233.052 155.328L232.753 153.35C231.408 153.553 230.076 153.756 228.758 153.958L229.061 155.935ZM237.039 154.731C238.362 154.534 239.695 154.338 241.038 154.143L240.75 152.164C239.406 152.359 238.07 152.556 236.745 152.752L237.039 154.731ZM245.024 153.57C246.351 153.382 247.686 153.195 249.027 153.01L248.754 151.029C247.41 151.214 246.073 151.402 244.743 151.59L245.024 153.57ZM253.018 152.468C254.347 152.29 255.683 152.114 257.022 151.941L256.766 149.957C255.423 150.131 254.085 150.307 252.752 150.485L253.018 152.468ZM261.019 151.435C262.351 151.269 263.687 151.107 265.024 150.948L264.789 148.962C263.447 149.121 262.108 149.284 260.773 149.45L261.019 151.435ZM269.029 150.485C270.363 150.335 271.699 150.188 273.035 150.046L272.824 148.058C271.484 148.2 270.144 148.347 268.805 148.498L269.029 150.485ZM277.047 149.634C278.385 149.501 279.721 149.373 281.056 149.25L280.873 147.259C279.533 147.382 278.192 147.51 276.85 147.644L277.047 149.634ZM285.075 148.898C286.415 148.785 287.752 148.679 289.085 148.579L288.936 146.585C287.597 146.685 286.254 146.792 284.908 146.904L285.075 148.898ZM293.111 148.297C294.454 148.209 295.791 148.128 297.122 148.055L297.012 146.058C295.674 146.132 294.33 146.213 292.981 146.301L293.111 148.297ZM301.155 147.856C302.499 147.798 303.835 147.748 305.161 147.707L305.099 145.708C303.764 145.749 302.42 145.8 301.068 145.858L301.155 147.856ZM309.202 147.609C310.545 147.586 311.878 147.572 313.198 147.57L313.194 145.57C311.863 145.572 310.521 145.586 309.168 145.609L309.202 147.609ZM317.247 147.595C318.593 147.616 319.924 147.648 321.239 147.692L321.307 145.694C319.979 145.648 318.635 145.616 317.277 145.596L317.247 147.595ZM325.275 147.873C326.627 147.948 327.96 148.038 329.271 148.144L329.432 146.15C328.103 146.043 326.754 145.952 325.386 145.876L325.275 147.873ZM333.255 148.519C334.613 148.667 335.945 148.834 337.249 149.02L337.531 147.04C336.204 146.851 334.851 146.681 333.472 146.531L333.255 148.519ZM341.167 149.654C342.511 149.899 343.82 150.167 345.09 150.46L345.54 148.512C344.237 148.211 342.898 147.936 341.525 147.686L341.167 149.654ZM348.957 151.466C350.26 151.846 351.513 152.256 352.712 152.699L353.404 150.822C352.158 150.362 350.861 149.937 349.517 149.546L348.957 151.466ZM356.327 154.207C357.558 154.788 358.715 155.411 359.794 156.078L360.845 154.377C359.697 153.667 358.473 153.009 357.18 152.399L356.327 154.207ZM362.959 158.352C363.972 159.201 364.882 160.106 365.685 161.069L367.222 159.789C366.337 158.727 365.341 157.739 364.244 156.819L362.959 158.352ZM367.818 164.23C368.406 165.337 368.881 166.511 369.236 167.758L371.16 167.21C370.766 165.828 370.238 164.522 369.583 163.291L367.818 164.23ZM369.917 171.515C369.972 172.159 370.001 172.821 370.001 173.5H372.001C372.001 172.765 371.97 172.047 371.909 171.344L369.917 171.515Z" fill="#FC4E0A"/>
</svg>
