<svg width="314" height="63" viewBox="0 0 314 63" fill="none" xmlns="http://www.w3.org/2000/svg">
<path d="M0 6L10.1245 0.44772L9.87067 11.9919L0 6ZM303.167 52C303.167 49.0545 305.554 46.6667 308.5 46.6667C311.446 46.6667 313.833 49.0545 313.833 52C313.833 54.9455 311.446 57.3333 308.5 57.3333C305.554 57.3333 303.167 54.9455 303.167 52ZM6.14518 5.15239C7.48805 5.19161 8.81889 5.23439 10.1379 5.28069L10.0677 7.27946C8.7527 7.2333 7.42578 7.19064 6.0868 7.15154L6.14518 5.15239ZM14.0594 5.43C15.3641 5.48362 16.6569 5.54072 17.9381 5.60124L17.8437 7.59901C16.5667 7.53869 15.2779 7.48177 13.9773 7.42832L14.0594 5.43ZM22.0273 5.80809C23.377 5.88093 24.7134 5.95764 26.0368 6.03814L25.9153 8.03444C24.5966 7.95423 23.2647 7.87778 21.9195 7.80518L22.0273 5.80809ZM29.9676 6.29088C31.266 6.37892 32.5515 6.47067 33.8242 6.56605L33.6748 8.56046C32.4068 8.46544 31.126 8.37402 29.8323 8.28629L29.9676 6.29088ZM37.9103 6.88818C39.2577 6.99972 40.5904 7.1154 41.9088 7.23511L41.728 9.22692C40.4149 9.10769 39.0874 8.99247 37.7453 8.88136L37.9103 6.88818ZM45.8214 7.60622C47.1373 7.73645 48.4385 7.87076 49.7254 8.00904L49.5117 9.99759C48.2305 9.85991 46.9348 9.72618 45.6244 9.5965L45.8214 7.60622ZM53.7745 8.4626C55.1083 8.61817 56.4262 8.77808 57.7286 8.9422L57.4785 10.9265C56.1823 10.7632 54.8705 10.604 53.5428 10.4491L53.7745 8.4626ZM61.5895 9.44705C62.9409 9.63025 64.2752 9.81805 65.5926 10.0103L65.3039 11.9893C63.9931 11.7981 62.6656 11.6112 61.3209 11.4289L61.5895 9.44705ZM69.5655 10.6112C70.8727 10.816 72.163 11.0252 73.4367 11.2387L73.1061 13.2112C71.8394 12.9989 70.5562 12.7908 69.256 12.5871L69.5655 10.6112ZM77.3737 11.9213C78.7136 12.1614 80.0348 12.4064 81.3376 12.6559L80.9614 14.6202C79.6664 14.3722 78.3531 14.1287 77.0209 13.8899L77.3737 11.9213ZM85.1919 13.4179C86.5161 13.688 87.8209 13.9628 89.1069 14.2422L88.6824 16.1966C87.4046 15.919 86.1081 15.6459 84.7922 15.3775L85.1919 13.4179ZM93.0299 15.1213C94.318 15.419 95.5868 15.7212 96.8369 16.0277L96.3607 17.9701C95.1193 17.6658 93.8591 17.3657 92.5796 17.07L93.0299 15.1213ZM100.758 17.0183C102.061 17.3575 103.344 17.7013 104.607 18.0493L104.075 19.9774C102.822 19.6319 101.548 19.2906 100.254 18.9538L100.758 17.0183ZM108.403 19.1256C109.715 19.5079 111.004 19.8946 112.273 20.2855L111.684 22.1968C110.425 21.8089 109.145 21.4251 107.844 21.0457L108.403 19.1256ZM116.017 21.4698C117.317 21.8919 118.594 22.3181 119.85 22.7479L119.203 24.6402C117.957 24.2138 116.689 23.7909 115.399 23.3721L116.017 21.4698ZM123.589 24.059C124.863 24.5168 126.115 24.9781 127.346 25.4421L126.641 27.3136C125.419 26.8531 124.177 26.3954 122.913 25.9412L123.589 24.059ZM131.06 26.8739C132.314 27.3681 133.547 27.8647 134.76 28.3632L134 30.2131C132.795 29.7182 131.572 29.2251 130.327 28.7346L131.06 26.8739ZM138.435 29.903C139.673 30.4316 140.891 30.9614 142.091 31.4917L141.283 33.321C140.09 32.794 138.88 32.2675 137.65 31.7424L138.435 29.903ZM145.72 33.1195C146.945 33.6771 148.152 34.2343 149.344 34.7901L148.498 36.6026C147.311 36.0491 146.11 35.4945 144.891 34.9398L145.72 33.1195ZM152.928 36.4779C154.143 37.0552 155.343 37.6299 156.532 38.2011L155.666 40.0037C154.479 39.4334 153.281 38.86 152.069 38.2845L152.928 36.4779ZM160.092 39.9168C161.299 40.4991 162.496 41.0763 163.685 41.6476L162.819 43.4504C161.628 42.8783 160.43 42.3003 159.223 41.7181L160.092 39.9168ZM167.259 43.3539C168.459 43.9225 169.655 44.4836 170.848 45.0359L170.008 46.851C168.808 46.2956 167.607 45.7319 166.403 45.1613L167.259 43.3539ZM174.452 46.6768C175.657 47.2156 176.863 47.7444 178.074 48.2619L177.288 50.101C176.066 49.5787 174.85 49.0454 173.635 48.5025L174.452 46.6768ZM181.722 49.7787C182.939 50.27 184.163 50.749 185.399 51.2144L184.693 53.0859C183.443 52.6147 182.204 52.13 180.973 51.6332L181.722 49.7787ZM189.112 52.5595C190.342 52.9867 191.585 53.3999 192.844 53.7979L192.242 55.7049C190.964 55.301 189.703 54.8819 188.456 54.4488L189.112 52.5595ZM196.646 54.9381C197.887 55.29 199.145 55.627 200.423 55.9481L199.935 57.8878C198.638 57.5617 197.36 57.2195 196.1 56.8622L196.646 54.9381ZM204.279 56.854C205.538 57.1295 206.818 57.3896 208.121 57.6335L207.753 59.5994C206.43 59.3517 205.13 59.0876 203.851 58.8078L204.279 56.854ZM212.018 58.3032C213.292 58.5027 214.588 58.6871 215.908 58.8555L215.655 60.8394C214.316 60.6686 213.001 60.4816 211.709 60.2791L212.018 58.3032ZM219.84 59.3019C221.121 59.4297 222.424 59.543 223.752 59.641L223.604 61.6356C222.26 61.5363 220.94 61.4216 219.642 61.292L219.84 59.3019ZM227.725 59.8849C229.003 59.9477 230.303 59.9969 231.626 60.0321L231.573 62.0314C230.235 61.9958 228.92 61.946 227.627 61.8824L227.725 59.8849ZM235.663 60.0947C236.929 60.1006 238.215 60.0942 239.524 60.0749L239.553 62.0747C238.232 62.0941 236.933 62.1007 235.654 62.0946L235.663 60.0947ZM243.516 59.9782C244.808 59.935 246.122 59.8796 247.457 59.8119L247.558 61.8094C246.212 61.8776 244.887 61.9334 243.583 61.9771L243.516 59.9782ZM251.372 59.5818C252.698 59.4934 254.044 59.3932 255.412 59.281L255.576 61.2743C254.198 61.3873 252.841 61.4882 251.505 61.5773L251.372 59.5818ZM259.272 58.9375C260.564 58.8138 261.874 58.6798 263.203 58.5351L263.42 60.5234C262.082 60.6689 260.763 60.8039 259.463 60.9284L259.272 58.9375ZM267.25 58.069C268.507 57.9164 269.781 57.7546 271.073 57.5835L271.335 59.5661C270.037 59.7382 268.756 59.9009 267.491 60.0545L267.25 58.069ZM274.985 57.0438C276.306 56.8546 277.645 56.6558 279.002 56.4475L279.305 58.4243C277.942 58.6337 276.596 58.8334 275.268 59.0236L274.985 57.0438ZM282.852 55.8382C284.125 55.6309 285.413 55.4154 286.717 55.1915L287.055 57.1626C285.746 57.3875 284.452 57.6039 283.173 57.8122L282.852 55.8382ZM290.676 54.4947C291.979 54.2601 293.296 54.0174 294.629 53.7665L294.999 55.732C293.661 55.9838 292.338 56.2274 291.031 56.463L290.676 54.4947ZM298.427 53.0376C299.707 52.7874 301.001 52.5298 302.309 52.2648L302.706 54.225C301.394 54.4909 300.095 54.7493 298.811 55.0004L298.427 53.0376ZM306.276 51.4474C306.944 51.3075 307.616 51.1656 308.292 51.0219L308.708 52.9781C308.03 53.1223 307.356 53.2646 306.686 53.405L306.276 51.4474Z" fill="#FC4E0A"/>
</svg>
