<svg width="314" height="62" viewBox="0 0 314 62" fill="none" xmlns="http://www.w3.org/2000/svg">
<path d="M0 56.0968L10.1245 61.6491L9.87067 50.1049L0 56.0968ZM303.167 10.0968C303.167 13.0423 305.554 15.4301 308.5 15.4301C311.446 15.4301 313.833 13.0423 313.833 10.0968C313.833 7.15128 311.446 4.76347 308.5 4.76347C305.554 4.76347 303.167 7.15128 303.167 10.0968ZM6.14518 56.9444C7.48805 56.9052 8.81889 56.8624 10.1379 56.8161L10.0677 54.8173C8.7527 54.8635 7.42578 54.9062 6.0868 54.9453L6.14518 56.9444ZM14.0594 56.6668C15.3641 56.6132 16.6569 56.5561 17.9381 56.4956L17.8437 54.4978C16.5667 54.5581 15.2779 54.615 13.9773 54.6685L14.0594 56.6668ZM22.0273 56.2887C23.377 56.2159 24.7134 56.1392 26.0368 56.0587L25.9153 54.0624C24.5966 54.1426 23.2647 54.219 21.9195 54.2916L22.0273 56.2887ZM29.9676 55.8059C31.266 55.7179 32.5515 55.6261 33.8242 55.5308L33.6748 53.5363C32.4068 53.6314 31.126 53.7228 29.8323 53.8105L29.9676 55.8059ZM37.9103 55.2086C39.2577 55.0971 40.5904 54.9814 41.9088 54.8617L41.728 52.8699C40.4149 52.9891 39.0874 53.1043 37.7453 53.2154L37.9103 55.2086ZM45.8214 54.4906C47.1373 54.3604 48.4385 54.226 49.7254 54.0878L49.5117 52.0992C48.2305 52.2369 46.9348 52.3706 45.6244 52.5003L45.8214 54.4906ZM53.7745 53.6342C55.1083 53.4786 56.4262 53.3187 57.7286 53.1546L57.4785 51.1703C56.1823 51.3336 54.8705 51.4928 53.5428 51.6477L53.7745 53.6342ZM61.5895 52.6498C62.9409 52.4665 64.2752 52.2787 65.5926 52.0865L65.3039 50.1075C63.9931 50.2987 62.6656 50.4856 61.3209 50.6679L61.5895 52.6498ZM69.5655 51.4856C70.8727 51.2808 72.163 51.0716 73.4367 50.8581L73.1061 48.8856C71.8394 49.0979 70.5562 49.306 69.256 49.5097L69.5655 51.4856ZM77.3737 50.1755C78.7136 49.9354 80.0348 49.6904 81.3376 49.4409L80.9614 47.4766C79.6664 47.7246 78.3531 47.9681 77.0209 48.2069L77.3737 50.1755ZM85.1919 48.6789C86.5161 48.4088 87.8209 48.134 89.1069 47.8546L88.6824 45.9002C87.4046 46.1778 86.1081 46.4509 84.7922 46.7193L85.1919 48.6789ZM93.0299 46.9755C94.318 46.6778 95.5868 46.3756 96.8369 46.0691L96.3607 44.1267C95.1193 44.431 93.8591 44.7311 92.5796 45.0268L93.0299 46.9755ZM100.758 45.0785C102.061 44.7393 103.344 44.3955 104.607 44.0475L104.075 42.1194C102.822 42.4649 101.548 42.8062 100.254 43.143L100.758 45.0785ZM108.403 42.9712C109.715 42.5889 111.004 42.2022 112.273 41.8113L111.684 39.9C110.425 40.2879 109.145 40.6717 107.844 41.0511L108.403 42.9712ZM116.017 40.627C117.317 40.2049 118.594 39.7787 119.85 39.3489L119.203 37.4566C117.957 37.883 116.689 38.3059 115.399 38.7247L116.017 40.627ZM123.589 38.0378C124.863 37.58 126.115 37.1188 127.346 36.6547L126.641 34.7832C125.419 35.2437 124.177 35.7014 122.913 36.1556L123.589 38.0378ZM131.06 35.2229C132.314 34.7287 133.547 34.2321 134.76 33.7336L134 31.8837C132.795 32.3786 131.572 32.8717 130.327 33.3622L131.06 35.2229ZM138.435 32.1938C139.673 31.6652 140.891 31.1354 142.091 30.6051L141.283 28.7758C140.09 29.3029 138.88 29.8293 137.65 30.3544L138.435 32.1938ZM145.72 28.9773C146.945 28.4197 148.152 27.8625 149.344 27.3067L148.498 25.4942C147.311 26.0477 146.11 26.6023 144.891 27.157L145.72 28.9773ZM152.928 25.6189C154.143 25.0416 155.343 24.4669 156.532 23.8957L155.666 22.0931C154.479 22.6634 153.281 23.2368 152.069 23.8123L152.928 25.6189ZM160.092 22.18C161.299 21.5977 162.496 21.0205 163.685 20.4492L162.819 18.6464C161.628 19.2185 160.43 19.7965 159.223 20.3787L160.092 22.18ZM167.259 18.7429C168.459 18.1743 169.655 17.6132 170.848 17.0609L170.008 15.2458C168.808 15.8012 167.607 16.3649 166.403 16.9355L167.259 18.7429ZM174.452 15.42C175.657 14.8812 176.863 14.3524 178.074 13.8349L177.288 11.9958C176.066 12.5181 174.85 13.0514 173.635 13.5943L174.452 15.42ZM181.722 12.3181C182.939 11.8268 184.163 11.3478 185.399 10.8824L184.693 9.01089C183.443 9.48214 182.204 9.96679 180.973 10.4636L181.722 12.3181ZM189.112 9.5373C190.342 9.11011 191.585 8.69695 192.844 8.29892L192.242 6.39195C190.964 6.79584 189.703 7.21492 188.456 7.648L189.112 9.5373ZM196.646 7.15872C197.887 6.80682 199.145 6.46982 200.423 6.14871L199.935 4.209C198.638 4.53511 197.36 4.87733 196.1 5.23462L196.646 7.15872ZM204.279 5.24282C205.538 4.96734 206.818 4.70719 208.121 4.46326L207.753 2.49743C206.43 2.74509 205.13 3.00924 203.851 3.28901L204.279 5.24282ZM212.018 3.79361C213.292 3.59406 214.588 3.40971 215.908 3.24131L215.655 1.25738C214.316 1.42818 213.001 1.6152 211.709 1.8177L212.018 3.79361ZM219.84 2.79488C221.121 2.66707 222.424 2.55384 223.752 2.4558L223.604 0.461235C222.26 0.560523 220.94 0.675231 219.642 0.804763L219.84 2.79488ZM227.725 2.21194C229.003 2.1491 230.303 2.09987 231.626 2.06474L231.573 0.0654408C230.235 0.100966 228.92 0.150762 227.627 0.214352L227.725 2.21194ZM235.663 2.00215C236.929 1.99617 238.215 2.00263 239.524 2.02191L239.553 0.0221239C238.232 0.00266135 236.933 -0.00386608 235.654 0.00216854L235.663 2.00215ZM243.516 2.11857C244.808 2.16184 246.122 2.21716 247.457 2.28487L247.558 0.287438C246.212 0.21916 244.887 0.163352 243.583 0.11969L243.516 2.11857ZM251.372 2.51505C252.698 2.60344 254.044 2.70361 255.412 2.81585L255.576 0.822546C254.198 0.709493 252.841 0.608568 251.505 0.51948L251.372 2.51505ZM259.272 3.15932C260.564 3.28299 261.874 3.41704 263.203 3.5617L263.42 1.57344C262.082 1.42786 260.763 1.29293 259.463 1.16843L259.272 3.15932ZM267.25 4.02776C268.507 4.18041 269.781 4.34221 271.073 4.51335L271.335 2.53068C270.037 2.3586 268.756 2.19588 267.491 2.04234L267.25 4.02776ZM274.985 5.05298C276.306 5.24225 277.645 5.44096 279.002 5.6493L279.305 3.67247C277.942 3.46313 276.596 3.26343 275.268 3.07318L274.985 5.05298ZM282.852 6.25858C284.125 6.46591 285.413 6.68145 286.717 6.90532L287.055 4.93416C285.746 4.70934 284.452 4.49286 283.173 4.28459L282.852 6.25858ZM290.676 7.6021C291.979 7.83675 293.296 8.07945 294.629 8.33033L294.999 6.36484C293.661 6.11302 292.338 5.86938 291.031 5.6338L290.676 7.6021ZM298.427 9.0592C299.707 9.30944 301.001 9.56701 302.309 9.832L302.706 7.87181C301.394 7.60594 300.095 7.34749 298.811 7.09636L298.427 9.0592ZM306.276 10.6494C306.944 10.7893 307.616 10.9312 308.292 11.0749L308.708 9.1187C308.03 8.97452 307.356 8.83223 306.686 8.69183L306.276 10.6494Z" fill="#FC4E0A"/>
</svg>
